<?xml version="1.0" standalone="no"?>
<!DOCTYPE svg PUBLIC "-//W3C//DTD SVG 20010904//EN"
 "http://www.w3.org/TR/2001/REC-SVG-20010904/DTD/svg10.dtd">
<svg version="1.0" xmlns="http://www.w3.org/2000/svg"
 width="700.000000pt" height="700.000000pt" viewBox="0 0 700.000000 700.000000"
 preserveAspectRatio="xMidYMid meet">
<metadata>
Created by potrace 1.11, written by Peter Selinger 2001-2013
</metadata>
<g transform="translate(0.000000,700.000000) scale(0.100000,-0.100000)"
fill="#000000" stroke="none">
<path d="M3420 6772 c-25 -8 -58 -24 -75 -36 -55 -38 -3077 -3070 -3112 -3123
-94 -139 -95 -346 -3 -485 24 -36 1491 -1515 1615 -1628 25 -22 27 -23 22 -5
-4 11 -9 43 -12 70 -4 28 -8 57 -10 65 -2 8 -7 42 -10 75 -3 33 -8 69 -10 80
-2 11 -7 58 -10 105 -4 47 -8 96 -11 110 -8 48 -18 317 -18 475 0 222 11 406
35 595 6 47 13 101 15 120 3 33 7 60 19 120 3 13 7 42 11 64 3 22 7 43 9 46 2
3 6 23 9 45 30 194 154 593 258 835 256 592 596 1056 1072 1465 32 28 68 58
80 69 107 94 471 349 651 456 50 29 92 55 95 57 2 2 -81 89 -185 194 -204 204
-248 236 -340 242 -27 2 -70 -3 -95 -11z"/>
<path d="M4103 6087 c-284 -158 -532 -333 -747 -528 l-39 -36 114 -2 c220 -4
440 -15 539 -27 230 -28 488 -77 645 -124 39 -12 80 -23 92 -26 60 -12 446
-160 538 -207 11 -5 18 -7 15 -3 -3 3 -232 233 -509 511 -277 278 -511 505
-520 504 -9 0 -66 -28 -128 -62z"/>
<path d="M3237 5254 c-1 -1 -38 -4 -82 -8 -109 -8 -127 -13 -145 -35 -36 -45
-95 -116 -101 -121 -31 -27 -244 -332 -308 -441 -237 -400 -386 -794 -480
-1264 -16 -82 -32 -175 -36 -205 -3 -30 -8 -66 -10 -80 -5 -22 -10 -74 -20
-180 -12 -124 -20 -418 -16 -565 1 -45 -3 -42 181 -129 161 -75 442 -179 600
-221 14 -3 41 -11 60 -16 62 -16 213 -50 268 -60 215 -38 239 -41 422 -56 117
-10 513 -10 635 -1 83 7 285 32 345 44 14 3 48 9 75 14 90 17 109 21 210 46
55 14 146 39 202 56 l103 31 -5 151 c-3 83 -7 169 -9 191 -3 22 -7 73 -11 114
-4 41 -8 82 -10 92 -2 9 -6 39 -10 66 -27 196 -96 475 -172 698 -244 712 -689
1338 -1286 1809 l-98 77 -150 -2 c-82 -2 -151 -4 -152 -5z"/>
<path d="M3990 5236 c0 -3 74 -79 164 -168 135 -135 237 -248 352 -391 151
-188 350 -507 468 -750 173 -357 316 -808 366 -1152 6 -44 13 -91 16 -105 2
-14 6 -52 10 -85 3 -33 7 -71 10 -85 5 -31 17 -227 17 -292 1 -27 2 -48 4 -48
12 0 231 103 330 155 332 175 627 390 902 659 165 161 201 228 206 384 4 102
-12 166 -61 249 -35 61 -497 520 -679 674 -21 19 -47 42 -57 51 -63 62 -345
274 -458 344 -203 127 -555 294 -785 372 -201 68 -459 135 -612 158 -21 3 -45
7 -53 9 -8 2 -40 7 -70 10 -30 4 -58 9 -62 11 -4 3 -8 3 -8 0z"/>
<path d="M2065 1953 c12 -151 57 -461 94 -646 23 -116 35 -155 53 -174 13 -14
177 -180 366 -369 337 -336 409 -398 527 -457 296 -145 672 -109 935 90 38 29
1614 1593 1605 1593 -2 0 -38 -16 -79 -35 -42 -19 -79 -35 -82 -35 -3 0 -20
-7 -37 -15 -154 -71 -598 -200 -801 -231 -21 -3 -48 -7 -60 -10 -294 -57 -793
-75 -1106 -39 -19 2 -60 6 -90 9 -30 3 -66 8 -80 11 -14 3 -44 7 -67 10 -308
37 -901 219 -1166 357 -17 9 -18 4 -12 -59z"/>
</g>
</svg>
