<?xml version="1.0" encoding="utf-8"?>
<!-- Generator: Adobe Illustrator 25.0.0, SVG Export Plug-In . SVG Version: 6.00 Build 0)  -->
<svg version="1.1" id="Camada_1" xmlns="http://www.w3.org/2000/svg" xmlns:xlink="http://www.w3.org/1999/xlink" x="0px" y="0px"
	 viewBox="0 0 600 250" style="enable-background:new 0 0 600 250;" xml:space="preserve">
<style type="text/css">
	.st0{fill:#D3094C;}
	.st1{fill:#E7004C;}
</style>
<path class="st0" d="M417.1,62.2l37,19c-2.4-0.1-4.1-0.2-4.2-0.2c-1.3,0-2.7-0.1-4.1-0.1c-15.3,0-30.5,2.2-45.1,6.6
	c-0.2,0.1-2.6,0.8-5.2,1.5C401.7,79.3,409,70.2,417.1,62.2 M416.6,59.1c-10.5,10.1-19.4,21.7-26.6,34.3c0.7-0.2,11.4-3.4,11.4-3.4
	c14.4-4.3,29.4-6.5,44.4-6.5c1.3,0,2.7,0,4,0.1c6,0.2,16.5,1.1,16.7,1.2L416.6,59.1L416.6,59.1z"/>
<path class="st0" d="M401.3,103c22,7.5,42.3,20.3,58.5,36.9c16,16.4,28.2,36.6,35.4,58.4c-12.5,8.9-26.3,15.9-41,20.7
	c-15.1,4.9-30.9,7.4-46.8,7.4c-8.2,0-16.4-0.7-24.5-2c-14.1-40.6-13.4-79.3,2.1-115.1C390.2,106.9,395.7,104.8,401.3,103
	 M401.3,100.3c-6.2,1.9-12.4,4.3-18.3,7c-16.5,37.4-16.9,77.5-2,119.3c8.8,1.5,17.6,2.3,26.4,2.3c32.4,0,64.3-10.3,90.8-29.6
	C483.6,152.7,447.6,115.9,401.3,100.3L401.3,100.3z"/>
<path class="st0" d="M446.5,93.4v2.5h0c9.1,0,18.3,0.9,27.3,2.5l0.1,0l0.1,0c18.4,2.6,39.7,13.1,61.7,24.6
	c7.3,3.8,10.1,12.8,6.4,20.1l-0.1,0.1l0,0.1c-0.2,0.6-0.6,1.2-0.8,1.6l0,0l0,0c-8.3,16.4-19.6,31-33.5,43.4
	c-14.4-39.6-43.6-72.3-81.3-91.1c6.7-0.9,13.5-1.4,20.2-1.4L446.5,93.4 M446.5,93.4c-9.6,0-19.2,0.9-28.7,2.8
	c41.9,18.3,74,53.4,88.6,96.7c15.3-13,27.9-28.8,36.9-46.6c0.3-0.5,0.6-1.2,0.9-1.9c4.4-8.5,1.1-19-7.4-23.5
	C517,110.5,493.9,98.8,474.3,96C465.1,94.3,455.8,93.4,446.5,93.4L446.5,93.4z"/>
<path class="st0" d="M385.2,46.8c1.3,0,2.5,0.3,3.6,0.9l14.4,7.4c-11.8,13.3-21.9,28-29.9,43.7l0,0.1l0,0.1c-0.2,0.4-4,8.9-6,14.6
	c-12.4,35.1-12.3,72.6,0.3,111.6c2.8,8.7,6.2,17.2,9.9,25.5h-5.1L309.1,218c-7.3-3.8-10.2-12.8-6.5-20.1l75.5-146.8
	C379.5,48.4,382.2,46.8,385.2,46.8 M385.2,44.2c-3.8,0-7.5,2.1-9.4,5.7l-75.5,146.8c-4.4,8.6-1,19.1,7.6,23.5l63.8,32.8h9.7
	c-4.5-9.3-8.3-19-11.5-28.8c-14.8-46-9.7-83.5-0.3-110c2-5.6,5.9-14.4,5.9-14.4c8.5-16.6,19.2-31.9,31.7-45.6L390,45.3
	C388.4,44.6,386.8,44.2,385.2,44.2L385.2,44.2z"/>
<path class="st0" d="M509.9,206.1L487,250.5h-93c-1.6-3.3-3.2-6.7-4.7-10.2c6,0.7,12.2,1,18.2,1c34.2,0,67.1-10.3,95.2-29.9l0,0l0,0
	L509.9,206.1 M518,195.9c-2.8,2.6-6.1,5.5-8.3,7.1s-8.5,6.3-8.5,6.3c-27.7,19.2-60.4,29.4-93.7,29.4c-7.4,0-14.9-0.5-22.3-1.5
	c2.2,5.3,4.7,10.6,7.3,15.8h96.1L518,195.9L518,195.9z"/>
<path class="st1" d="M140.4,126.9c4.7,4.7,8.9,9.8,12.6,15.4c-0.7-0.2-1.2-0.4-1.3-0.4c-9.8-2.9-20.1-4.4-30.3-4.4
	c-0.6,0-1.1,0-1.7,0L140.4,126.9 M140.9,123.8l-33.3,17.1c0.1-0.1,7.1-0.7,11.1-0.8c0.9,0,1.8,0,2.7,0c10,0,20,1.5,29.6,4.3
	c0,0,7.1,2.1,7.6,2.3C153.8,138.2,147.8,130.5,140.9,123.8L140.9,123.8z"/>
<path class="st1" d="M151.1,153.9c3.5,1.1,7,2.4,10.2,3.9c10.1,23.4,10.5,48.8,1.4,75.4c-5.2,0.8-10.5,1.2-15.7,1.2
	c-20.7,0-40.6-6.3-57.5-18.2C99.2,187.1,122.1,163.9,151.1,153.9 M151.1,151.2c-30.9,10.4-54.9,34.9-64.6,66
	c17.7,12.9,38.9,19.8,60.5,19.8c5.9,0,11.8-0.5,17.6-1.5c9.9-27.9,9.6-54.6-1.4-79.5C159.3,154.1,155.2,152.5,151.1,151.2
	L151.1,151.2z"/>
<path class="st1" d="M120.9,146.6v2.5c3.6,0,7.1,0.2,10.6,0.6c-23.7,12.6-42.2,33.5-51.7,58.8c-8.8-8-15.9-17.4-21.2-27.8l0,0l0,0
	c-0.2-0.3-0.4-0.7-0.5-1l0-0.1l-0.1-0.1c-2.3-4.4-0.5-9.9,3.9-12.2c11.7-6.1,27.7-14.5,40.9-16.3l0.1,0l0.1,0c5.9-1.1,12-1.7,18-1.7
	L120.9,146.6 M120.9,146.6c-6.2,0-12.4,0.6-18.5,1.7c-13.1,1.8-28.4,9.7-41.7,16.6c-5.7,3-7.9,10-5,15.7c0.2,0.4,0.4,0.9,0.6,1.2
	c6,11.9,14.5,22.4,24.6,31.1c9.7-28.8,31.2-52.2,59.1-64.4C133.7,147.2,127.3,146.6,120.9,146.6L120.9,146.6z"/>
<path class="st1" d="M161.8,116.4c1.7,0,3.2,0.9,4,2.4l50.3,97.8c2.3,4.5,0.5,10-4,12.3l-42,21.6h-1.9c2.3-5.1,4.4-10.5,6.1-15.9
	c8.4-26.2,8.5-51.4,0.2-74.9c-1.3-3.8-3.9-9.5-4-9.8l0-0.1l0-0.1c-5.2-10.3-11.7-19.8-19.3-28.5l8.6-4.4
	C160.4,116.5,161.1,116.4,161.8,116.4 M161.8,113.8c-1.1,0-2.2,0.2-3.2,0.8l-11.5,6c8.4,9.1,15.5,19.4,21.2,30.4
	c0,0,2.6,5.8,3.9,9.6c6.2,17.7,9.7,42.6-0.2,73.3c-2.1,6.6-4.7,13-7.7,19.2h6.5l42.5-21.9c5.7-3,8-10,5.1-15.7l-50.3-97.9
	C166.8,115.2,164.4,113.8,161.8,113.8L161.8,113.8z"/>
<path class="st1" d="M81.1,224.6L83,226l0,0l0,0c18.9,13.1,41,20.1,63.9,20.1c3.6,0,7.2-0.2,10.8-0.5c-0.7,1.7-1.5,3.3-2.3,4.9h-61
	L81.1,224.6 M73.3,215l19.6,38.1H157c1.7-3.5,3.3-7,4.8-10.5c-5,0.7-9.9,1-14.9,1c-22.2,0-44.1-6.8-62.5-19.6c0,0-4.2-3.2-5.7-4.2
	C77.4,218.7,75.2,216.7,73.3,215L73.3,215z"/>
</svg>
