<svg version="1.1" id="Camada_1" xmlns="http://www.w3.org/2000/svg" x="0" y="0" viewBox="0 0 600 250" xml:space="preserve"><style>.st0{fill:#d3094c}.st1{fill:#e7004c}</style><path class="st0" d="M417.1 62.2l37 19c-2.4-.1-4.1-.2-4.2-.2-1.3 0-2.7-.1-4.1-.1-15.3 0-30.5 2.2-45.1 6.6-.2.1-2.6.8-5.2 1.5 6.2-9.7 13.5-18.8 21.6-26.8m-.5-3.1c-10.5 10.1-19.4 21.7-26.6 34.3.7-.2 11.4-3.4 11.4-3.4 14.4-4.3 29.4-6.5 44.4-6.5 1.3 0 2.7 0 4 .1 6 .2 16.5 1.1 16.7 1.2l-49.9-25.7zM401.3 103c22 7.5 42.3 20.3 58.5 36.9 16 16.4 28.2 36.6 35.4 58.4-12.5 8.9-26.3 15.9-41 20.7-15.1 4.9-30.9 7.4-46.8 7.4-8.2 0-16.4-.7-24.5-2-14.1-40.6-13.4-79.3 2.1-115.1 5.2-2.4 10.7-4.5 16.3-6.3m0-2.7c-6.2 1.9-12.4 4.3-18.3 7-16.5 37.4-16.9 77.5-2 119.3 8.8 1.5 17.6 2.3 26.4 2.3 32.4 0 64.3-10.3 90.8-29.6-14.6-46.6-50.6-83.4-96.9-99z"/><path class="st0" d="M446.5 93.4v2.5c9.1 0 18.3.9 27.3 2.5h.2c18.4 2.6 39.7 13.1 61.7 24.6 7.3 3.8 10.1 12.8 6.4 20.1l-.1.1v.1c-.2.6-.6 1.2-.8 1.6-8.3 16.4-19.6 31-33.5 43.4-14.4-39.6-43.6-72.3-81.3-91.1 6.7-.9 13.5-1.4 20.2-1.4l-.1-2.4m0 0c-9.6 0-19.2.9-28.7 2.8 41.9 18.3 74 53.4 88.6 96.7 15.3-13 27.9-28.8 36.9-46.6.3-.5.6-1.2.9-1.9 4.4-8.5 1.1-19-7.4-23.5-19.8-10.4-42.9-22.1-62.5-24.9-9.2-1.7-18.5-2.6-27.8-2.6zM385.2 46.8c1.3 0 2.5.3 3.6.9l14.4 7.4c-11.8 13.3-21.9 28-29.9 43.7v.2c-.2.4-4 8.9-6 14.6-12.4 35.1-12.3 72.6.3 111.6 2.8 8.7 6.2 17.2 9.9 25.5h-5.1L309.1 218c-7.3-3.8-10.2-12.8-6.5-20.1l75.5-146.8c1.4-2.7 4.1-4.3 7.1-4.3m0-2.6c-3.8 0-7.5 2.1-9.4 5.7l-75.5 146.8c-4.4 8.6-1 19.1 7.6 23.5l63.8 32.8h9.7c-4.5-9.3-8.3-19-11.5-28.8-14.8-46-9.7-83.5-.3-110 2-5.6 5.9-14.4 5.9-14.4 8.5-16.6 19.2-31.9 31.7-45.6L390 45.3c-1.6-.7-3.2-1.1-4.8-1.1zM509.9 206.1L487 250.5h-93c-1.6-3.3-3.2-6.7-4.7-10.2 6 .7 12.2 1 18.2 1 34.2 0 67.1-10.3 95.2-29.9l7.2-5.3m8.1-10.2c-2.8 2.6-6.1 5.5-8.3 7.1s-8.5 6.3-8.5 6.3c-27.7 19.2-60.4 29.4-93.7 29.4-7.4 0-14.9-.5-22.3-1.5 2.2 5.3 4.7 10.6 7.3 15.8h96.1l29.4-57.1z"/><path class="st1" d="M140.4 126.9c4.7 4.7 8.9 9.8 12.6 15.4-.7-.2-1.2-.4-1.3-.4-9.8-2.9-20.1-4.4-30.3-4.4h-1.7l20.7-10.6m.5-3.1l-33.3 17.1c.1-.1 7.1-.7 11.1-.8h2.7c10 0 20 1.5 29.6 4.3 0 0 7.1 2.1 7.6 2.3-4.8-8.5-10.8-16.2-17.7-22.9zM151.1 153.9c3.5 1.1 7 2.4 10.2 3.9 10.1 23.4 10.5 48.8 1.4 75.4-5.2.8-10.5 1.2-15.7 1.2-20.7 0-40.6-6.3-57.5-18.2 9.7-29.1 32.6-52.3 61.6-62.3m0-2.7c-30.9 10.4-54.9 34.9-64.6 66 17.7 12.9 38.9 19.8 60.5 19.8 5.9 0 11.8-.5 17.6-1.5 9.9-27.9 9.6-54.6-1.4-79.5-3.9-1.9-8-3.5-12.1-4.8z"/><path class="st1" d="M120.9 146.6v2.5c3.6 0 7.1.2 10.6.6-23.7 12.6-42.2 33.5-51.7 58.8-8.8-8-15.9-17.4-21.2-27.8-.2-.3-.4-.7-.5-1v-.1l-.1-.1c-2.3-4.4-.5-9.9 3.9-12.2 11.7-6.1 27.7-14.5 40.9-16.3h.2c5.9-1.1 12-1.7 18-1.7l-.1-2.7m0 0c-6.2 0-12.4.6-18.5 1.7-13.1 1.8-28.4 9.7-41.7 16.6-5.7 3-7.9 10-5 15.7.2.4.4.9.6 1.2 6 11.9 14.5 22.4 24.6 31.1 9.7-28.8 31.2-52.2 59.1-64.4-6.3-1.3-12.7-1.9-19.1-1.9zM161.8 116.4c1.7 0 3.2.9 4 2.4l50.3 97.8c2.3 4.5.5 10-4 12.3l-42 21.6h-1.9c2.3-5.1 4.4-10.5 6.1-15.9 8.4-26.2 8.5-51.4.2-74.9-1.3-3.8-3.9-9.5-4-9.8v-.2c-5.2-10.3-11.7-19.8-19.3-28.5l8.6-4.4c.6-.3 1.3-.4 2-.4m0-2.6c-1.1 0-2.2.2-3.2.8l-11.5 6c8.4 9.1 15.5 19.4 21.2 30.4 0 0 2.6 5.8 3.9 9.6 6.2 17.7 9.7 42.6-.2 73.3-2.1 6.6-4.7 13-7.7 19.2h6.5l42.5-21.9c5.7-3 8-10 5.1-15.7l-50.3-97.9c-1.3-2.4-3.7-3.8-6.3-3.8zM81.1 224.6L83 226c18.9 13.1 41 20.1 63.9 20.1 3.6 0 7.2-.2 10.8-.5-.7 1.7-1.5 3.3-2.3 4.9h-61l-13.3-25.9m-7.8-9.6l19.6 38.1H157c1.7-3.5 3.3-7 4.8-10.5-5 .7-9.9 1-14.9 1-22.2 0-44.1-6.8-62.5-19.6 0 0-4.2-3.2-5.7-4.2-1.3-1.1-3.5-3.1-5.4-4.8z"/></svg>