<svg version="1.1" id="Camada_1" xmlns="http://www.w3.org/2000/svg" x="0" y="0" viewBox="0 0 135 220" xml:space="preserve"><style>.st0{fill:#d3094c}</style><path class="st0" d="M128.3 24.6L167 44.5c-2.5-.1-4.3-.2-4.4-.2-1.4 0-2.8-.1-4.2-.1-16 0-31.9 2.3-47.2 6.9-.2.1-2.7.8-5.4 1.6 6.4-10.2 14-19.7 22.5-28.1m-.5-3.2c-11 10.5-20.3 22.7-27.8 35.9.8-.2 12-3.6 12-3.6 15.1-4.5 30.7-6.8 46.4-6.8 1.4 0 2.8 0 4.2.1 6.3.2 17.2 1.2 17.4 1.3l-52.2-26.9zM111.8 67.3c23 7.9 44.2 21.2 61.2 38.6 16.8 17.1 29.5 38.2 37 61-13.1 9.3-27.5 16.6-42.8 21.6-15.8 5.2-32.3 7.8-48.9 7.8-8.6 0-17.2-.7-25.6-2.1-14.8-42.5-14.1-83 2.2-120.4 5.2-2.5 11-4.7 16.9-6.5m0-2.8c-6.5 2-12.9 4.5-19.1 7.3-17.2 39.1-17.7 81-2.1 124.7 9.2 1.6 18.4 2.4 27.6 2.4 33.9 0 67.2-10.7 94.9-31-15.3-48.7-52.9-87.2-101.3-103.4z"/><path class="st0" d="M159.1 57.2v2.7c9.6 0 19.2.9 28.5 2.7h.2c19.2 2.7 41.5 13.7 64.5 25.7 7.6 4 10.6 13.4 6.6 21l-.1.1v.1c-.3.6-.6 1.3-.8 1.7-8.7 17.1-20.5 32.4-35.1 45.4-15-41.4-45.6-75.6-85-95.3 7-1 14.1-1.5 21.1-1.5l.1-2.6m0 0c-10 0-20.1 1-30 2.9 43.8 19.2 77.4 55.9 92.6 101.1 16-13.6 29.1-30.1 38.6-48.7.3-.5.7-1.3.9-1.9 4.6-8.9 1.1-19.9-7.8-24.6-20.8-10.8-44.9-23.1-65.4-26-9.5-1.9-19.2-2.8-28.9-2.8zM94.9 8.5c1.3 0 2.6.3 3.8.9l15 7.8C101.4 31 90.9 46.4 82.5 62.8v.2c-.2.4-4.2 9.3-6.3 15.2-13 36.6-12.9 75.9.3 116.7 3 9.1 6.5 18 10.4 26.6h-5.3l-66.1-34c-7.6-3.9-10.7-13.4-6.8-21L87.5 13c1.4-2.8 4.3-4.5 7.4-4.5m0-2.7c-4 0-7.8 2.2-9.8 6L6.2 165.3c-4.6 9-1.1 20 7.9 24.6l66.7 34.3H91c-4.7-9.8-8.7-19.8-12-30.1-15.5-48.1-10.1-87.3-.3-115 2.1-5.9 6.2-15 6.2-15 8.8-17.3 20-33.4 33.2-47.7L99.9 7c-1.6-.8-3.3-1.2-5-1.2zM225.3 175l-24 46.5h-97.2c-1.7-3.5-3.4-7.1-5-10.6 6.3.7 12.7 1 19.1 1 35.7 0 70.1-10.8 99.5-31.3l7.6-5.6m8.4-10.6c-3 2.7-6.4 5.8-8.6 7.4-2.2 1.7-8.9 6.6-8.9 6.6-28.9 20.1-63.2 30.8-98 30.8-7.8 0-15.5-.5-23.3-1.6 2.3 5.6 4.9 11.1 7.6 16.5H203l30.7-59.7z"/></svg>