<?xml version="1.0" encoding="utf-8"?>
<!-- Generator: Adobe Illustrator 25.0.0, SVG Export Plug-In . SVG Version: 6.00 Build 0)  -->
<svg version="1.1" id="Camada_1" xmlns="http://www.w3.org/2000/svg" xmlns:xlink="http://www.w3.org/1999/xlink" x="0px" y="0px"
	 viewBox="0 0 135 220" style="enable-background:new 0 0 135 220;" xml:space="preserve">
<style type="text/css">
	.st0{fill:#D3094C;}
</style>
<path class="st0" d="M128.3,24.6L167,44.5c-2.5-0.1-4.3-0.2-4.4-0.2c-1.4,0-2.8-0.1-4.2-0.1c-16,0-31.9,2.3-47.2,6.9
	c-0.2,0.1-2.7,0.8-5.4,1.6C112.2,42.5,119.8,33,128.3,24.6 M127.8,21.4c-11,10.5-20.3,22.7-27.8,35.9c0.8-0.2,12-3.6,12-3.6
	c15.1-4.5,30.7-6.8,46.4-6.8c1.4,0,2.8,0,4.2,0.1c6.3,0.2,17.2,1.2,17.4,1.3L127.8,21.4L127.8,21.4z"/>
<path class="st0" d="M111.8,67.3c23,7.9,44.2,21.2,61.2,38.6c16.8,17.1,29.5,38.2,37,61c-13.1,9.3-27.5,16.6-42.8,21.6
	c-15.8,5.2-32.3,7.8-48.9,7.8c-8.6,0-17.2-0.7-25.6-2.1c-14.8-42.5-14.1-83,2.2-120.4C100.1,71.3,105.9,69.1,111.8,67.3 M111.8,64.5
	c-6.5,2-12.9,4.5-19.1,7.3c-17.2,39.1-17.7,81-2.1,124.7c9.2,1.6,18.4,2.4,27.6,2.4c33.9,0,67.2-10.7,94.9-31
	C197.8,119.2,160.2,80.7,111.8,64.5L111.8,64.5z"/>
<path class="st0" d="M159.1,57.2v2.7h0c9.6,0,19.2,0.9,28.5,2.7l0.1,0l0.1,0c19.2,2.7,41.5,13.7,64.5,25.7c7.6,4,10.6,13.4,6.6,21
	l-0.1,0.1l0,0.1c-0.3,0.6-0.6,1.3-0.8,1.7l0,0l0,0c-8.7,17.1-20.5,32.4-35.1,45.4c-15-41.4-45.6-75.6-85-95.3c7-1,14.1-1.5,21.1-1.5
	L159.1,57.2 M159.1,57.2c-10,0-20.1,1-30,2.9c43.8,19.2,77.4,55.9,92.6,101.1c16-13.6,29.1-30.1,38.6-48.7c0.3-0.5,0.7-1.3,0.9-1.9
	c4.6-8.9,1.1-19.9-7.8-24.6c-20.8-10.8-44.9-23.1-65.4-26C178.5,58.1,168.8,57.2,159.1,57.2L159.1,57.2z"/>
<path class="st0" d="M94.9,8.5c1.3,0,2.6,0.3,3.8,0.9l15,7.8C101.4,31,90.9,46.4,82.5,62.8l0,0.1l0,0.1c-0.2,0.4-4.2,9.3-6.3,15.2
	c-13,36.6-12.9,75.9,0.3,116.7c3,9.1,6.5,18,10.4,26.6h-5.3l-66.1-34c-7.6-3.9-10.7-13.4-6.8-21L87.5,13
	C88.9,10.2,91.8,8.5,94.9,8.5 M94.9,5.8c-4,0-7.8,2.2-9.8,6L6.2,165.3c-4.6,9-1.1,20,7.9,24.6l66.7,34.3H91
	c-4.7-9.8-8.7-19.8-12-30.1c-15.5-48.1-10.1-87.3-0.3-115c2.1-5.9,6.2-15,6.2-15c8.8-17.3,20-33.4,33.2-47.7L99.9,7
	C98.3,6.2,96.6,5.8,94.9,5.8L94.9,5.8z"/>
<path class="st0" d="M225.3,175l-24,46.5h-97.2c-1.7-3.5-3.4-7.1-5-10.6c6.3,0.7,12.7,1,19.1,1c35.7,0,70.1-10.8,99.5-31.3l0,0l0,0
	L225.3,175 M233.7,164.4c-3,2.7-6.4,5.8-8.6,7.4c-2.2,1.7-8.9,6.6-8.9,6.6c-28.9,20.1-63.2,30.8-98,30.8c-7.8,0-15.5-0.5-23.3-1.6
	c2.3,5.6,4.9,11.1,7.6,16.5H203L233.7,164.4L233.7,164.4z"/>
</svg>
