<svg xmlns="http://www.w3.org/2000/svg" viewBox="0 0 1280 720"><path fill="#02193a" d="M0 0h1280v720H0z"/><g transform="translate(-.005 .002)"><linearGradient id="a" gradientUnits="userSpaceOnUse" x1="635.233" y1="380.838" x2="1176.044" y2="380.838" gradientTransform="matrix(1 0 0 -1 -.005 719.998)"><stop offset="0" stop-color="#02193a"/><stop offset=".99" stop-color="#041537"/></linearGradient><path d="M985.7 172.7c-34.5-5-69.5-4.6-103.8 1.3 0 0-23.3 4-25 4.3 18.3-24.9 40.1-47 64.7-65.7l98.9 66.8c-.4-.1-22.2-4.8-34.8-6.7zm72.7 256.4c-77.4 43.5-169.2 53.7-254.2 28.1-20.9-92-9.8-176.5 34.4-251.2 13.2-4.3 26.7-7.7 40.4-10.1 93.7 44.5 160.4 131.2 179.4 233.2zm-277.1 20.3c5.3 26.8 12.7 53.1 22.3 78.6l-152-102.7c-17-11.5-21.5-34.6-10-51.6L837.9 82.9c6.9-10.2 20.8-12.9 31-6l34.3 23.2c-30.1 25.7-56.5 55.4-78.5 88.2 0 0-10.4 17.4-16.1 28.8-26.5 53.6-46.9 131.4-27.3 232.3zm117.8 143.1l-64.5-43.6c-9.6-22.2-17.8-44.9-24.4-68.2 84.7 22.2 174.6 11.6 251.9-29.6 0 0 14.6-8.4 19.4-11.3s12.5-8.1 19.2-12.9l-98.4 145.6c-22.9 34-69.1 43-103.2 20zm268.1-264c-23.7 35.3-54.2 65.6-89.7 89-19.8-95-78.8-177.2-162.5-226.3 40.2-2.9 80.7 1.8 119.2 13.8 40.7 10.8 86.4 41.4 125.7 68.4 16.8 11.6 21.2 34.6 9.8 51.5-1 1.3-1.8 2.6-2.5 3.6z" fill="url(#a)"/></g><g transform="translate(-.005 .002)"><linearGradient id="b" gradientUnits="userSpaceOnUse" x1="324.64" y1="445.918" x2="690.307" y2="445.918" gradientTransform="matrix(1 0 0 -1 -.005 719.998)"><stop offset="0" stop-color="#02193a"/><stop offset=".99" stop-color="#041537"/></linearGradient><path d="M561.7 161.5c-23.3-3.4-47-3.1-70.2.9 0 0-15.8 2.7-16.9 2.9 12.4-16.8 27.1-31.8 43.8-44.4l66.9 45.2c-.3-.2-15.1-3.3-23.6-4.6zm49.1 173.4c-52.3 29.4-114.4 36.3-171.9 19-14.1-62.2-6.6-119.4 23.3-169.9 8.9-2.9 18.1-5.2 27.3-6.9 63.4 30.1 108.5 88.8 121.3 157.8zm-187.3 13.7c3.6 18.1 8.6 35.9 15.1 53.2l-102.9-69.5c-11.5-7.8-14.5-23.4-6.8-34.9l132.8-196.6c4.7-6.9 14-8.7 21-4.1l23.2 15.7c-20.3 17.4-38.2 37.5-53.1 59.7 0 0-7.1 11.8-10.9 19.5-17.9 36.2-31.7 88.8-18.4 157zm79.6 96.8l-43.6-29.5c-6.5-15-12-30.4-16.5-46.1 57.3 15 118.1 7.8 170.4-20l13.2-7.6c3.3-1.9 8.5-5.5 13-8.7L573 431.9c-15.6 23-46.8 29-69.9 13.5zm181.3-178.5c-16 23.9-36.7 44.3-60.7 60.2-13.4-64.2-53.3-119.8-109.9-153.1 27.2-2 54.6 1.2 80.6 9.4 27.5 7.3 58.4 28 85 46.2 11.4 7.8 14.3 23.4 6.6 34.8-.5.9-1.1 1.8-1.6 2.5z" fill="url(#b)"/></g><g transform="translate(-.005 .002)"><linearGradient id="c" gradientUnits="userSpaceOnUse" x1="142.898" y1="321.792" x2="345.441" y2="321.792" gradientTransform="matrix(1 0 0 -1 -.005 719.998)"><stop offset="0" stop-color="#02193a"/><stop offset=".99" stop-color="#041537"/></linearGradient><path d="M274.1 335.8c-12.9-1.9-26-1.7-38.9.5 0 0-8.7 1.5-9.4 1.6 6.9-9.3 15-17.6 24.2-24.6l37 25s-8.1-1.8-12.9-2.5zm27.2 96.1c-29 16.3-63.4 20.1-95.2 10.5-7.8-34.5-3.7-66.1 12.9-94.1 5-1.6 10-2.9 15.1-3.8 35.2 16.6 60.2 49.1 67.2 87.4zm-103.7 7.5c2 10 4.8 19.9 8.4 29.5l-57-38.5c-6.4-4.3-8-13-3.7-19.3l73.5-108.9c2.6-3.8 7.8-4.8 11.6-2.2l12.9 8.7c-11.3 9.6-21.2 20.8-29.4 33.1 0 0-3.9 6.5-6 10.8-10.1 19.9-17.7 49-10.3 86.8zm44.1 53.7l-24.2-16.3c-3.6-8.3-6.7-16.8-9.1-25.5 31.7 8.3 65.4 4.3 94.4-11.1 0 0 5.5-3.2 7.3-4.2 1.8-1.1 4.7-3 7.2-4.8l-36.9 54.5c-8.6 12.6-26 16-38.7 7.4zm100.4-98.9c-8.9 13.2-20.3 24.6-33.6 33.3-7.4-35.6-29.5-66.4-60.9-84.8 15.1-1.1 30.2.7 44.7 5.2 15.2 4.1 32.4 15.5 47.1 25.6 6.3 4.3 7.9 13 3.7 19.3-.4.5-.7 1-1 1.4z" fill="url(#c)"/></g><g transform="translate(-.005 .002)"><linearGradient id="d" gradientUnits="userSpaceOnUse" x1="211.927" y1="489.184" x2="329.815" y2="489.184" gradientTransform="matrix(1 0 0 -1 -.005 719.998)"><stop offset="0" stop-color="#02193a"/><stop offset="1" stop-color="#041b40"/></linearGradient><path d="M288.4 194.5c-7.5-1.1-15.2-1-22.6.3 0 0-5.1.9-5.4.9 4-5.4 8.7-10.3 14.1-14.3l21.6 14.6c-.2-.1-5-1.1-7.7-1.5zm15.8 55.9c-16.9 9.5-36.9 11.7-55.4 6.1-4.6-20.1-2.1-38.5 7.5-54.8 2.9-.9 5.8-1.7 8.8-2.2 20.4 9.7 35 28.7 39.1 50.9zm-60.4 4.4c1.2 5.8 2.8 11.6 4.9 17.2l-33.2-22.4c-3.7-2.5-4.7-7.5-2.2-11.3l42.8-63.4c1.5-2.2 4.5-2.8 6.8-1.3l7.5 5.1c-6.6 5.6-12.3 12.1-17.1 19.2 0 0-2.3 3.8-3.5 6.3-5.9 11.7-10.3 28.6-6 50.6zm25.7 31.3l-14.1-9.5c-2.1-4.8-3.9-9.8-5.3-14.9 18.5 4.8 38.1 2.5 54.9-6.5 0 0 3.2-1.8 4.2-2.5 1.1-.6 2.7-1.8 4.2-2.8L292 281.7c-5 7.4-15.1 9.4-22.5 4.4zm58.4-57.6c-5.2 7.7-11.8 14.3-19.6 19.4-4.3-20.7-17.2-38.6-35.4-49.4 8.8-.6 17.6.4 26 3 8.9 2.4 18.8 9 27.4 14.9 3.7 2.5 4.6 7.5 2.1 11.2-.1.4-.3.6-.5.9z" fill="url(#d)"/></g><g transform="translate(-.005 .002)"><linearGradient id="e" gradientUnits="userSpaceOnUse" x1="657.827" y1="147.934" x2="775.815" y2="147.934" gradientTransform="matrix(1 0 0 -1 -.005 719.998)"><stop offset="0" stop-color="#02193a"/><stop offset="1" stop-color="#041b40"/></linearGradient><path d="M734.3 535.7c-7.5-1.1-15.2-1-22.6.3 0 0-5.1.9-5.4.9 4-5.4 8.7-10.3 14.1-14.3l21.6 14.6c-.2 0-4.9-1.1-7.7-1.5zm15.8 56c-16.9 9.5-36.9 11.7-55.4 6.1-4.6-20.1-2.1-38.5 7.5-54.8 2.9-.9 5.8-1.7 8.8-2.2 20.5 9.7 35 28.6 39.1 50.9zm-60.4 4.4c1.2 5.8 2.8 11.6 4.9 17.2l-33.2-22.4c-3.7-2.5-4.7-7.5-2.2-11.3l42.8-63.4c1.5-2.2 4.5-2.8 6.8-1.3l7.5 5.1c-6.6 5.6-12.3 12.1-17.1 19.2 0 0-2.3 3.8-3.5 6.3-5.8 11.6-10.3 28.6-6 50.6zm25.7 31.2l-14.1-9.5c-2.1-4.8-3.9-9.8-5.3-14.9 18.5 4.8 38.1 2.5 54.9-6.5 0 0 3.2-1.8 4.2-2.5 1.1-.6 2.7-1.8 4.2-2.8l-21.5 31.8c-4.9 7.4-15 9.4-22.4 4.4zm58.5-57.6c-5.2 7.7-11.8 14.3-19.6 19.4-4.3-20.7-17.2-38.6-35.4-49.4 8.8-.6 17.6.4 26 3 8.9 2.4 18.8 9 27.4 14.9 3.7 2.5 4.6 7.5 2.1 11.2-.2.4-.4.7-.5.9z" fill="url(#e)"/></g><g transform="translate(-.005 .002)"><linearGradient id="f" gradientUnits="userSpaceOnUse" x1="527.127" y1="637.121" x2="645.015" y2="637.121" gradientTransform="matrix(1 0 0 -1 -.005 719.998)"><stop offset="0" stop-color="#02193a"/><stop offset="1" stop-color="#041b40"/></linearGradient><path d="M603.6 46.5c-7.5-1.1-15.2-1-22.6.3 0 0-5.1.9-5.4.9 4-5.4 8.7-10.3 14.1-14.3L611.2 48c-.1 0-4.9-1-7.6-1.5zm15.8 56c-16.9 9.5-36.9 11.7-55.4 6.1-4.6-20.1-2.1-38.5 7.5-54.8 2.9-.9 5.8-1.7 8.8-2.2 20.4 9.7 35 28.6 39.1 50.9zm-60.4 4.4c1.2 5.8 2.8 11.6 4.9 17.2l-33.2-22.4c-3.7-2.5-4.7-7.5-2.2-11.3L571.3 27c1.5-2.2 4.5-2.8 6.8-1.3l7.5 5.1c-6.6 5.6-12.3 12.1-17.1 19.2 0 0-2.3 3.8-3.5 6.3-5.9 11.6-10.3 28.6-6 50.6zm25.7 31.2l-14.1-9.5c-2.1-4.8-3.9-9.8-5.3-14.9 18.5 4.8 38.1 2.5 54.9-6.5 0 0 3.2-1.8 4.2-2.5 1.1-.6 2.7-1.8 4.2-2.8l-21.5 31.8c-4.9 7.5-15 9.4-22.4 4.4zm58.4-57.6c-5.2 7.7-11.8 14.3-19.6 19.4-4.3-20.7-17.2-38.6-35.4-49.4 8.8-.6 17.6.4 26 3 8.9 2.4 18.8 9 27.4 14.9 3.7 2.5 4.6 7.5 2.1 11.2-.1.4-.3.7-.5.9z" fill="url(#f)"/></g><g transform="translate(-.005 .002)"><linearGradient id="g" gradientUnits="userSpaceOnUse" x1="255.49" y1="634.849" x2="308.07" y2="634.849" gradientTransform="matrix(1 0 0 -1 -.005 719.998)"><stop offset="0" stop-color="#02193a"/><stop offset="1" stop-color="#041b40"/></linearGradient><path d="M289.6 69c-3.4-.5-6.8-.4-10.1.1 0 0-2.3.4-2.4.4 1.8-2.4 3.9-4.6 6.3-6.4l9.6 6.5c-.1 0-2.2-.4-3.4-.6zm7 24.9c-7.5 4.2-16.5 5.2-24.7 2.7-2-9-1-17.2 3.3-24.4 1.3-.4 2.6-.7 3.9-1 9.2 4.4 15.7 12.8 17.5 22.7zm-26.9 2c.5 2.6 1.2 5.2 2.2 7.6l-14.8-10c-1.7-1.1-2.1-3.4-1-5l19.1-28.3c.7-1 2-1.3 3-.6l3.3 2.3c-2.9 2.5-5.5 5.4-7.6 8.6 0 0-1 1.7-1.6 2.8-2.5 5.2-4.5 12.8-2.6 22.6zm11.4 13.9l-6.3-4.2c-.9-2.2-1.7-4.4-2.4-6.6 8.2 2.2 17 1.1 24.5-2.9 0 0 1.4-.8 1.9-1.1.5-.3 1.2-.8 1.9-1.3l-9.6 14.2c-2.2 3.3-6.6 4.2-10 1.9zm26.1-25.6c-2.3 3.4-5.3 6.4-8.7 8.7-1.9-9.2-7.7-17.2-15.8-22 3.9-.3 7.8.2 11.6 1.3 4 1.1 8.4 4 12.2 6.6 1.6 1.1 2.1 3.4.9 5 0 .1-.1.3-.2.4z" fill="url(#g)"/></g><g transform="translate(-.005 .002)"><linearGradient id="h" gradientUnits="userSpaceOnUse" x1="31.19" y1="288.984" x2="83.769" y2="288.984" gradientTransform="matrix(1 0 0 -1 -.005 719.998)"><stop offset="0" stop-color="#02193a"/><stop offset="1" stop-color="#041b40"/></linearGradient><path d="M65.2 414.8c-3.4-.5-6.8-.4-10.1.1 0 0-2.3.4-2.4.4 1.8-2.4 3.9-4.6 6.3-6.4l9.6 6.5c0 .1-2.1-.4-3.4-.6zm7.1 25c-7.5 4.2-16.5 5.2-24.7 2.7-2-9-1-17.2 3.3-24.4 1.3-.4 2.6-.7 3.9-1 9.2 4.3 15.7 12.8 17.5 22.7zm-26.9 2c.5 2.6 1.2 5.2 2.2 7.6l-14.8-10c-1.7-1.1-2.1-3.4-1-5l19.1-28.3c.7-1 2-1.3 3-.6l3.3 2.3c-2.9 2.5-5.5 5.4-7.6 8.6 0 0-1 1.7-1.6 2.8-2.6 5.2-4.6 12.7-2.6 22.6zm11.4 13.9l-6.3-4.2c-.9-2.2-1.7-4.4-2.4-6.6 8.2 2.2 17 1.1 24.5-2.9 0 0 1.4-.8 1.9-1.1s1.2-.8 1.9-1.3l-9.6 14.2c-2.2 3.2-6.7 4.1-10 1.9zM82.9 430c-2.3 3.4-5.3 6.4-8.7 8.7-1.9-9.2-7.7-17.2-15.8-22 3.9-.3 7.8.2 11.6 1.3 4 1.1 8.4 4 12.2 6.6 1.6 1.1 2.1 3.4.9 5-.1.2-.2.3-.2.4z" fill="url(#h)"/></g><g transform="translate(-.005 .002)"><linearGradient id="i" gradientUnits="userSpaceOnUse" x1="1116.69" y1="226.949" x2="1169.269" y2="226.949" gradientTransform="matrix(1 0 0 -1 -.005 719.998)"><stop offset="0" stop-color="#02193a"/><stop offset="1" stop-color="#041b40"/></linearGradient><path d="M1150.8 476.9c-3.4-.5-6.8-.4-10.1.1 0 0-2.3.4-2.4.4 1.8-2.4 3.9-4.6 6.3-6.4l9.6 6.5c-.1 0-2.2-.4-3.4-.6zm7 24.9c-7.5 4.2-16.5 5.2-24.7 2.7-2-9-1-17.2 3.3-24.4 1.3-.4 2.6-.7 3.9-1 9.2 4.4 15.7 12.8 17.5 22.7zm-26.9 2c.5 2.6 1.2 5.2 2.2 7.6l-14.8-10c-1.7-1.1-2.1-3.4-1-5l19.1-28.3c.7-1 2-1.3 3-.6l3.3 2.3c-2.9 2.5-5.5 5.4-7.6 8.6 0 0-1 1.7-1.6 2.8-2.6 5.2-4.5 12.8-2.6 22.6zm11.4 13.9l-6.3-4.2c-.9-2.2-1.7-4.4-2.4-6.6 8.2 2.2 17 1.1 24.5-2.9 0 0 1.4-.8 1.9-1.1.5-.3 1.2-.8 1.9-1.3l-9.6 14.2c-2.2 3.3-6.7 4.2-10 1.9zm26.1-25.6c-2.3 3.4-5.3 6.4-8.7 8.7-1.9-9.2-7.7-17.2-15.8-22 3.9-.3 7.8.2 11.6 1.3 4 1.1 8.4 4 12.2 6.6 1.6 1.1 2.1 3.4.9 5-.1.1-.1.3-.2.4z" fill="url(#i)"/></g><g transform="translate(-.005 .002)"><linearGradient id="j" gradientUnits="userSpaceOnUse" x1="967.89" y1="622.034" x2="1020.49" y2="622.034" gradientTransform="matrix(1 0 0 -1 -.005 719.998)"><stop offset="0" stop-color="#02193a"/><stop offset="1" stop-color="#041b40"/></linearGradient><path d="M1002 81.8c-3.4-.5-6.8-.4-10.1.1 0 0-2.3.4-2.4.4 1.8-2.4 3.9-4.6 6.3-6.4l9.6 6.5c0 .1-2.2-.4-3.4-.6zm7.1 25c-7.5 4.2-16.5 5.2-24.7 2.7-2-9-1-17.2 3.3-24.4 1.3-.4 2.6-.7 3.9-1 9.1 4.3 15.6 12.8 17.5 22.7zm-27 1.9c.5 2.6 1.2 5.2 2.2 7.6l-14.8-10c-1.7-1.1-2.1-3.4-1-5L987.6 73c.7-1 2-1.3 3-.6l3.3 2.3c-2.9 2.5-5.5 5.4-7.6 8.6 0 0-1 1.7-1.6 2.8-2.5 5.3-4.5 12.8-2.6 22.6zm11.5 14l-6.3-4.2c-.9-2.2-1.7-4.4-2.4-6.6 8.2 2.2 17 1.1 24.5-2.9 0 0 1.4-.8 1.9-1.1s1.2-.8 1.9-1.3l-9.6 14.2c-2.2 3.2-6.7 4.1-10 1.9zm26.1-25.7c-2.3 3.4-5.3 6.4-8.7 8.7-1.9-9.2-7.7-17.2-15.8-22 3.9-.3 7.8.2 11.6 1.3 4 1.1 8.4 4 12.2 6.6 1.6 1.1 2.1 3.4.9 5-.1.2-.2.3-.2.4z" fill="url(#j)"/></g><g transform="translate(-.005 .002)"><linearGradient id="k" gradientUnits="userSpaceOnUse" x1="335.458" y1="246.232" x2="469.017" y2="246.232" gradientTransform="matrix(1 0 0 -1 -.005 719.998)"><stop offset="0" stop-color="#02193a"/><stop offset=".99" stop-color="#041537"/></linearGradient><path d="M422 432.6c-8.5-1.2-17.2-1.1-25.6.3 0 0-5.8 1-6.2 1.1 4.5-6.2 9.9-11.6 16-16.2l24.4 16.5c-.1 0-5.5-1.2-8.6-1.7zm18 63.4a80.13 80.13 0 0 1-62.8 6.9c-5.2-22.7-2.4-43.6 8.5-62 3.3-1.1 6.6-1.9 10-2.5 23.1 10.9 39.6 32.4 44.3 57.6zm-68.5 5c1.3 6.6 3.1 13.1 5.5 19.4L339.5 495c-4.2-2.8-5.3-8.5-2.5-12.7l48.5-71.8c1.7-2.5 5.1-3.2 7.7-1.5l8.5 5.7c-7.4 6.3-13.9 13.7-19.4 21.8 0 0-2.6 4.3-4 7.1-6.6 13.2-11.6 32.4-6.8 57.4zm29.1 35.3l-15.9-10.8c-2.4-5.5-4.4-11.1-6-16.8 20.9 5.5 43.1 2.9 62.2-7.3l4.8-2.8c1.2-.7 3.1-2 4.7-3.2l-24.3 35.9c-5.7 8.5-17.1 10.7-25.5 5zm66.2-65.2c-5.9 8.7-13.4 16.2-22.2 22-4.9-23.5-19.5-43.8-40.1-55.9 9.9-.7 19.9.4 29.4 3.4 10 2.7 21.3 10.2 31 16.9 4.2 2.9 5.2 8.5 2.4 12.7-.1.3-.3.7-.5.9z" fill="url(#k)"/></g><g transform="translate(-.005 .002)"><linearGradient id="l" gradientUnits="userSpaceOnUse" x1="633.158" y1="581.217" x2="766.684" y2="581.217" gradientTransform="matrix(1 0 0 -1 -.005 719.998)"><stop offset="0" stop-color="#02193a"/><stop offset=".99" stop-color="#041537"/></linearGradient><path d="M719.8 97.7c-8.5-1.2-17.2-1.1-25.6.3 0 0-5.8 1-6.2 1.1 4.5-6.2 9.9-11.6 16-16.2l24.4 16.5c-.1-.1-5.5-1.2-8.6-1.7zm17.9 63.3a80.13 80.13 0 0 1-62.8 6.9c-5.2-22.7-2.4-43.6 8.5-62 3.3-1.1 6.6-1.9 10-2.5 23.2 11 39.6 32.4 44.3 57.6zm-68.4 5c1.3 6.6 3.1 13.1 5.5 19.4L637.2 160c-4.2-2.8-5.3-8.5-2.5-12.7l48.5-71.8c1.7-2.5 5.1-3.2 7.7-1.5l8.5 5.7C692 86 685.5 93.4 680 101.5c0 0-2.6 4.3-4 7.1-6.5 13.3-11.6 32.5-6.7 57.4zm29.1 35.4l-15.9-10.8c-2.4-5.5-4.4-11.1-6-16.8 20.9 5.5 43.1 2.9 62.2-7.3l4.8-2.8c1.2-.7 3.1-2 4.7-3.2l-24.3 35.9c-5.7 8.4-17.1 10.6-25.5 5zm66.2-65.2c-5.9 8.7-13.4 16.2-22.2 22-4.9-23.5-19.5-43.8-40.1-55.9 9.9-.7 19.9.4 29.4 3.4 10 2.7 21.3 10.2 31 16.9 4.2 2.9 5.2 8.5 2.4 12.7-.2.3-.3.6-.5.9z" fill="url(#l)"/></g><g transform="translate(-.005 .002)"><linearGradient id="m" gradientUnits="userSpaceOnUse" x1="549.158" y1="213.692" x2="682.684" y2="213.692" gradientTransform="matrix(1 0 0 -1 -.005 719.998)"><stop offset="0" stop-color="#02193a"/><stop offset=".99" stop-color="#041537"/></linearGradient><path d="M635.8 465.2c-8.5-1.2-17.2-1.1-25.6.3 0 0-5.8 1-6.2 1.1 4.5-6.2 9.9-11.6 16-16.2l24.4 16.5c-.1-.1-5.5-1.2-8.6-1.7zm17.9 63.3a80.13 80.13 0 0 1-62.8 6.9c-5.2-22.7-2.4-43.6 8.5-62 3.3-1.1 6.6-1.9 10-2.5 23.1 11 39.6 32.4 44.3 57.6zm-68.4 5c1.3 6.6 3.1 13.1 5.5 19.4l-37.6-25.4c-4.2-2.8-5.3-8.5-2.5-12.7l48.5-71.8c1.7-2.5 5.1-3.2 7.7-1.5l8.5 5.7c-7.4 6.3-13.9 13.7-19.4 21.8 0 0-2.6 4.3-4 7.1-6.5 13.3-11.6 32.5-6.7 57.4zm29.1 35.4l-15.9-10.8c-2.4-5.5-4.4-11.1-6-16.8 20.9 5.5 43.1 2.9 62.2-7.3l4.8-2.8c1.2-.7 3.1-2 4.7-3.2l-24.3 36c-5.7 8.3-17.1 10.6-25.5 4.9zm66.2-65.2c-5.9 8.7-13.4 16.2-22.2 22-4.9-23.5-19.5-43.8-40.1-55.9 9.9-.7 19.9.4 29.4 3.4 10 2.7 21.3 10.2 31 16.9 4.2 2.9 5.2 8.5 2.4 12.7-.2.3-.4.6-.5.9z" fill="url(#m)"/></g><g transform="translate(-.005 .002)"><linearGradient id="n" gradientUnits="userSpaceOnUse" x1="1044.773" y1="582.577" x2="1234.543" y2="582.577" gradientTransform="matrix(1 0 0 -1 -.005 719.998)"><stop offset="0" stop-color="#02193a"/><stop offset=".99" stop-color="#041537"/></linearGradient><path d="M1167.8 79c-12.1-1.8-24.4-1.6-36.4.5 0 0-8.2 1.4-8.8 1.5 6.4-8.7 14.1-16.5 22.7-23.1l34.7 23.4c-.1 0-7.8-1.6-12.2-2.3zm25.5 90c-27.2 15.3-59.4 18.8-89.2 9.9-7.3-32.3-3.4-62 12.1-88.2 4.6-1.5 9.4-2.7 14.2-3.6 32.8 15.6 56.3 46.1 62.9 81.9zm-97.2 7.1c1.9 9.4 4.5 18.6 7.8 27.6l-53.4-36.1c-6-4-7.5-12.1-3.5-18.1l68.9-102c2.4-3.6 7.3-4.5 10.9-2.1l12 8.1c-10.6 9-19.8 19.4-27.6 31 0 0-3.7 6.1-5.6 10.1-9.3 18.8-16.4 46.1-9.5 81.5zm41.3 50.2l-22.6-15.3c-3.4-7.8-6.2-15.8-8.6-23.9 29.7 7.8 61.3 4.1 88.4-10.4l6.8-4c1.7-1 4.4-2.8 6.7-4.5l-34.5 51.1c-8 11.9-24.2 15.1-36.2 7zm94.1-92.6c-8.3 12.4-19 23-31.5 31.2-7-33.3-27.7-62.2-57-79.4 14.1-1 28.3.6 41.8 4.9 14.3 3.8 30.3 14.5 44.1 24 5.9 4.1 7.4 12.1 3.4 18.1-.3.4-.6.8-.8 1.2z" fill="url(#n)"/></g></svg>