<?xml version="1.0" encoding="utf-8"?>
<!-- Generator: Adobe Illustrator 25.0.0, SVG Export Plug-In . SVG Version: 6.00 Build 0)  -->
<svg version="1.1" id="Camada_1" xmlns="http://www.w3.org/2000/svg" xmlns:xlink="http://www.w3.org/1999/xlink" x="0px" y="0px"
	 viewBox="0 0 1280 720" style="enable-background:new 0 0 1280 720;" xml:space="preserve">
<style type="text/css">
	.st0{fill:#011434;}
	.st1{fill:url(#SVGID_1_);}
	.st2{fill:url(#SVGID_2_);}
	.st3{fill:url(#SVGID_3_);}
	.st4{fill:url(#SVGID_4_);}
	.st5{fill:url(#SVGID_5_);}
	.st6{fill:url(#SVGID_6_);}
	.st7{fill:url(#SVGID_7_);}
	.st8{fill:url(#SVGID_8_);}
	.st9{fill:url(#SVGID_9_);}
	.st10{fill:url(#SVGID_10_);}
	.st11{fill:url(#SVGID_11_);}
	.st12{fill:url(#SVGID_12_);}
	.st13{fill:url(#SVGID_13_);}
	.st14{fill:url(#SVGID_14_);}
</style>
<g>
	<rect class="st0" width="1280" height="720"/>
</g>
<g>
	<g transform="translate(-0.005 0.002)">
		<g>
			<linearGradient id="SVGID_1_" gradientUnits="userSpaceOnUse" x1="635.2051" y1="339.1699" x2="1175.9979" y2="339.1699">
				<stop  offset="0" style="stop-color:#011434"/>
				<stop  offset="1" style="stop-color:#02132F"/>
			</linearGradient>
			<path class="st1" d="M985.7,172.7L985.7,172.7c-34.5-5-69.5-4.6-103.8,1.3c0,0-23.3,4-25,4.3c18.3-24.9,40.1-47,64.7-65.7
				l98.9,66.8C1020.1,179.3,998.3,174.6,985.7,172.7z M1058.4,429.1c-77.4,43.5-169.2,53.7-254.2,28.1
				c-20.9-92-9.8-176.5,34.4-251.2c13.2-4.3,26.7-7.7,40.4-10.1C972.7,240.4,1039.4,327.1,1058.4,429.1z M781.3,449.4
				c5.3,26.8,12.7,53.1,22.3,78.6L651.6,425.3c-17-11.5-21.5-34.6-10-51.6L837.9,82.9c6.9-10.2,20.8-12.9,31-6l34.3,23.2
				c-30.1,25.7-56.5,55.4-78.5,88.2c0,0-10.4,17.4-16.1,28.8l0,0C782.1,270.7,761.7,348.5,781.3,449.4z M899.1,592.5l-64.5-43.6
				c-9.6-22.2-17.8-44.9-24.4-68.2c84.7,22.2,174.6,11.6,251.9-29.6c0,0,14.6-8.4,19.4-11.3s12.5-8.1,19.2-12.9l-98.4,145.6
				C979.4,606.5,933.2,615.5,899.1,592.5z M1167.2,328.5c-23.7,35.3-54.2,65.6-89.7,89c-19.8-95-78.8-177.2-162.5-226.3
				c40.2-2.9,80.7,1.8,119.2,13.8c40.7,10.8,86.4,41.4,125.7,68.4c16.8,11.6,21.2,34.6,9.8,51.5
				C1168.7,326.2,1167.9,327.5,1167.2,328.5z"/>
		</g>
	</g>
</g>
<g>
	<g transform="translate(-0.005 0.002)">
		<g>
			<linearGradient id="SVGID_2_" gradientUnits="userSpaceOnUse" x1="324.6288" y1="274.072" x2="690.4091" y2="274.072">
				<stop  offset="0" style="stop-color:#011434"/>
				<stop  offset="1" style="stop-color:#02132F"/>
			</linearGradient>
			<path class="st2" d="M561.7,161.5L561.7,161.5c-23.3-3.4-47-3.1-70.2,0.9c0,0-15.8,2.7-16.9,2.9c12.4-16.8,27.1-31.8,43.8-44.4
				l66.9,45.2C585,165.9,570.2,162.8,561.7,161.5z M610.8,334.9c-52.3,29.4-114.4,36.3-171.9,19c-14.1-62.2-6.6-119.4,23.3-169.9
				c8.9-2.9,18.1-5.2,27.3-6.9C552.9,207.2,598,265.9,610.8,334.9z M423.5,348.6c3.6,18.1,8.6,35.9,15.1,53.2l-102.9-69.5
				c-11.5-7.8-14.5-23.4-6.8-34.9l132.8-196.6c4.7-6.9,14-8.7,21-4.1l23.2,15.7c-20.3,17.4-38.2,37.5-53.1,59.7
				c0,0-7.1,11.8-10.9,19.5l0,0C424,227.8,410.2,280.4,423.5,348.6z M503.1,445.4l-43.6-29.5c-6.5-15-12-30.4-16.5-46.1
				c57.3,15,118.1,7.8,170.4-20c0,0,9.9-5.7,13.2-7.6c3.3-1.9,8.5-5.5,13-8.7L573,431.9C557.4,454.9,526.2,460.9,503.1,445.4z
				 M684.4,266.9c-16,23.9-36.7,44.3-60.7,60.2c-13.4-64.2-53.3-119.8-109.9-153.1c27.2-2,54.6,1.2,80.6,9.4
				c27.5,7.3,58.4,28,85,46.2c11.4,7.8,14.3,23.4,6.6,34.8C685.5,265.3,684.9,266.2,684.4,266.9z"/>
		</g>
	</g>
</g>
<g>
	<g transform="translate(-0.005 0.002)">
		<g>
			<linearGradient id="SVGID_3_" gradientUnits="userSpaceOnUse" x1="142.8195" y1="398.1519" x2="345.4148" y2="398.1519">
				<stop  offset="0" style="stop-color:#011434"/>
				<stop  offset="1" style="stop-color:#02132F"/>
			</linearGradient>
			<path class="st3" d="M274.1,335.8L274.1,335.8c-12.9-1.9-26-1.7-38.9,0.5c0,0-8.7,1.5-9.4,1.6c6.9-9.3,15-17.6,24.2-24.6l37,25
				C287,338.3,278.9,336.5,274.1,335.8z M301.3,431.9c-29,16.3-63.4,20.1-95.2,10.5c-7.8-34.5-3.7-66.1,12.9-94.1
				c5-1.6,10-2.9,15.1-3.8C269.3,361.1,294.3,393.6,301.3,431.9z M197.6,439.4c2,10,4.8,19.9,8.4,29.5l-57-38.5
				c-6.4-4.3-8-13-3.7-19.3l73.5-108.9c2.6-3.8,7.8-4.8,11.6-2.2l12.9,8.7c-11.3,9.6-21.2,20.8-29.4,33.1c0,0-3.9,6.5-6,10.8l0,0
				C197.8,372.5,190.2,401.6,197.6,439.4z M241.7,493.1l-24.2-16.3c-3.6-8.3-6.7-16.8-9.1-25.5c31.7,8.3,65.4,4.3,94.4-11.1
				c0,0,5.5-3.2,7.3-4.2c1.8-1.1,4.7-3,7.2-4.8l-36.9,54.5C271.8,498.3,254.4,501.7,241.7,493.1z M342.1,394.2
				c-8.9,13.2-20.3,24.6-33.6,33.3c-7.4-35.6-29.5-66.4-60.9-84.8c15.1-1.1,30.2,0.7,44.7,5.2c15.2,4.1,32.4,15.5,47.1,25.6
				c6.3,4.3,7.9,13,3.7,19.3C342.7,393.3,342.4,393.8,342.1,394.2z"/>
		</g>
	</g>
</g>
<g>
	<g transform="translate(-0.005 0.002)">
		<g>
			<linearGradient id="SVGID_4_" gradientUnits="userSpaceOnUse" x1="211.9046" y1="230.7895" x2="329.8707" y2="230.7895">
				<stop  offset="0" style="stop-color:#011434"/>
				<stop  offset="1" style="stop-color:#02193A"/>
			</linearGradient>
			<path class="st4" d="M288.4,194.5L288.4,194.5c-7.5-1.1-15.2-1-22.6,0.3c0,0-5.1,0.9-5.4,0.9c4-5.4,8.7-10.3,14.1-14.3l21.6,14.6
				C295.9,195.9,291.1,194.9,288.4,194.5z M304.2,250.4c-16.9,9.5-36.9,11.7-55.4,6.1c-4.6-20.1-2.1-38.5,7.5-54.8
				c2.9-0.9,5.8-1.7,8.8-2.2C285.5,209.2,300.1,228.2,304.2,250.4z M243.8,254.8c1.2,5.8,2.8,11.6,4.9,17.2l-33.2-22.4
				c-3.7-2.5-4.7-7.5-2.2-11.3l42.8-63.4c1.5-2.2,4.5-2.8,6.8-1.3l7.5,5.1c-6.6,5.6-12.3,12.1-17.1,19.2c0,0-2.3,3.8-3.5,6.3l0,0
				C243.9,215.9,239.5,232.8,243.8,254.8z M269.5,286.1l-14.1-9.5c-2.1-4.8-3.9-9.8-5.3-14.9c18.5,4.8,38.1,2.5,54.9-6.5
				c0,0,3.2-1.8,4.2-2.5c1.1-0.6,2.7-1.8,4.2-2.8L292,281.7C287,289.1,276.9,291.1,269.5,286.1z M327.9,228.5
				c-5.2,7.7-11.8,14.3-19.6,19.4c-4.3-20.7-17.2-38.6-35.4-49.4c8.8-0.6,17.6,0.4,26,3c8.9,2.4,18.8,9,27.4,14.9
				c3.7,2.5,4.6,7.5,2.1,11.2C328.3,228,328.1,228.2,327.9,228.5z"/>
		</g>
	</g>
</g>
<g>
	<g transform="translate(-0.005 0.002)">
		<g>
			<linearGradient id="SVGID_5_" gradientUnits="userSpaceOnUse" x1="657.8398" y1="572.0308" x2="775.806" y2="572.0308">
				<stop  offset="0" style="stop-color:#011434"/>
				<stop  offset="1" style="stop-color:#02193A"/>
			</linearGradient>
			<path class="st5" d="M734.3,535.7L734.3,535.7c-7.5-1.1-15.2-1-22.6,0.3c0,0-5.1,0.9-5.4,0.9c4-5.4,8.7-10.3,14.1-14.3l21.6,14.6
				C741.8,537.2,737.1,536.1,734.3,535.7z M750.1,591.7c-16.9,9.5-36.9,11.7-55.4,6.1c-4.6-20.1-2.1-38.5,7.5-54.8
				c2.9-0.9,5.8-1.7,8.8-2.2C731.5,550.5,746,569.4,750.1,591.7z M689.7,596.1c1.2,5.8,2.8,11.6,4.9,17.2l-33.2-22.4
				c-3.7-2.5-4.7-7.5-2.2-11.3l42.8-63.4c1.5-2.2,4.5-2.8,6.8-1.3l7.5,5.1c-6.6,5.6-12.3,12.1-17.1,19.2c0,0-2.3,3.8-3.5,6.3l0,0
				C689.9,557.1,685.4,574.1,689.7,596.1z M715.4,627.3l-14.1-9.5c-2.1-4.8-3.9-9.8-5.3-14.9c18.5,4.8,38.1,2.5,54.9-6.5
				c0,0,3.2-1.8,4.2-2.5c1.1-0.6,2.7-1.8,4.2-2.8l-21.5,31.8C732.9,630.3,722.8,632.3,715.4,627.3z M773.9,569.7
				c-5.2,7.7-11.8,14.3-19.6,19.4c-4.3-20.7-17.2-38.6-35.4-49.4c8.8-0.6,17.6,0.4,26,3c8.9,2.4,18.8,9,27.4,14.9
				c3.7,2.5,4.6,7.5,2.1,11.2C774.2,569.2,774,569.5,773.9,569.7z"/>
		</g>
	</g>
</g>
<g>
	<g transform="translate(-0.005 0.002)">
		<g>
			<linearGradient id="SVGID_6_" gradientUnits="userSpaceOnUse" x1="527.1013" y1="82.8523" x2="645.0674" y2="82.8523">
				<stop  offset="0" style="stop-color:#011434"/>
				<stop  offset="1" style="stop-color:#02193A"/>
			</linearGradient>
			<path class="st6" d="M603.6,46.5L603.6,46.5c-7.5-1.1-15.2-1-22.6,0.3c0,0-5.1,0.9-5.4,0.9c4-5.4,8.7-10.3,14.1-14.3L611.2,48
				C611.1,48,606.3,47,603.6,46.5z M619.4,102.5c-16.9,9.5-36.9,11.7-55.4,6.1c-4.6-20.1-2.1-38.5,7.5-54.8c2.9-0.9,5.8-1.7,8.8-2.2
				C600.7,61.3,615.3,80.2,619.4,102.5z M559,106.9c1.2,5.8,2.8,11.6,4.9,17.2l-33.2-22.4c-3.7-2.5-4.7-7.5-2.2-11.3L571.3,27
				c1.5-2.2,4.5-2.8,6.8-1.3l7.5,5.1c-6.6,5.6-12.3,12.1-17.1,19.2c0,0-2.3,3.8-3.5,6.3l0,0C559.1,67.9,554.7,84.9,559,106.9z
				 M584.7,138.1l-14.1-9.5c-2.1-4.8-3.9-9.8-5.3-14.9c18.5,4.8,38.1,2.5,54.9-6.5c0,0,3.2-1.8,4.2-2.5c1.1-0.6,2.7-1.8,4.2-2.8
				l-21.5,31.8C602.2,141.2,592.1,143.1,584.7,138.1z M643.1,80.5c-5.2,7.7-11.8,14.3-19.6,19.4c-4.3-20.7-17.2-38.6-35.4-49.4
				c8.8-0.6,17.6,0.4,26,3c8.9,2.4,18.8,9,27.4,14.9c3.7,2.5,4.6,7.5,2.1,11.2C643.5,80,643.3,80.3,643.1,80.5z"/>
		</g>
	</g>
</g>
<g>
	<g transform="translate(-0.005 0.002)">
		<g>
			<linearGradient id="SVGID_7_" gradientUnits="userSpaceOnUse" x1="255.4708" y1="85.1928" x2="308.0706" y2="85.1928">
				<stop  offset="0" style="stop-color:#011434"/>
				<stop  offset="1" style="stop-color:#02193A"/>
			</linearGradient>
			<path class="st7" d="M289.6,69L289.6,69c-3.4-0.5-6.8-0.4-10.1,0.1c0,0-2.3,0.4-2.4,0.4c1.8-2.4,3.9-4.6,6.3-6.4l9.6,6.5
				C292.9,69.6,290.8,69.2,289.6,69z M296.6,93.9c-7.5,4.2-16.5,5.2-24.7,2.7c-2-9-1-17.2,3.3-24.4c1.3-0.4,2.6-0.7,3.9-1
				C288.3,75.6,294.8,84,296.6,93.9z M269.7,95.9c0.5,2.6,1.2,5.2,2.2,7.6l-14.8-10c-1.7-1.1-2.1-3.4-1-5l19.1-28.3
				c0.7-1,2-1.3,3-0.6l3.3,2.3c-2.9,2.5-5.5,5.4-7.6,8.6c0,0-1,1.7-1.6,2.8l0,0C269.8,78.5,267.8,86.1,269.7,95.9z M281.1,109.8
				l-6.3-4.2c-0.9-2.2-1.7-4.4-2.4-6.6c8.2,2.2,17,1.1,24.5-2.9c0,0,1.4-0.8,1.9-1.1c0.5-0.3,1.2-0.8,1.9-1.3l-9.6,14.2
				C288.9,111.2,284.5,112.1,281.1,109.8z M307.2,84.2c-2.3,3.4-5.3,6.4-8.7,8.7c-1.9-9.2-7.7-17.2-15.8-22
				c3.9-0.3,7.8,0.2,11.6,1.3c4,1.1,8.4,4,12.2,6.6c1.6,1.1,2.1,3.4,0.9,5C307.4,83.9,307.3,84.1,307.2,84.2z"/>
		</g>
	</g>
</g>
<g>
	<g transform="translate(-0.005 0.002)">
		<g>
			<linearGradient id="SVGID_8_" gradientUnits="userSpaceOnUse" x1="31.1388" y1="431.0422" x2="83.7385" y2="431.0422">
				<stop  offset="0" style="stop-color:#011434"/>
				<stop  offset="1" style="stop-color:#02193A"/>
			</linearGradient>
			<path class="st8" d="M65.2,414.8L65.2,414.8c-3.4-0.5-6.8-0.4-10.1,0.1c0,0-2.3,0.4-2.4,0.4c1.8-2.4,3.9-4.6,6.3-6.4l9.6,6.5
				C68.6,415.5,66.5,415,65.2,414.8z M72.3,439.8c-7.5,4.2-16.5,5.2-24.7,2.7c-2-9-1-17.2,3.3-24.4c1.3-0.4,2.6-0.7,3.9-1
				C64,421.4,70.5,429.9,72.3,439.8z M45.4,441.8c0.5,2.6,1.2,5.2,2.2,7.6l-14.8-10c-1.7-1.1-2.1-3.4-1-5l19.1-28.3
				c0.7-1,2-1.3,3-0.6l3.3,2.3c-2.9,2.5-5.5,5.4-7.6,8.6c0,0-1,1.7-1.6,2.8l0,0C45.4,424.4,43.4,431.9,45.4,441.8z M56.8,455.7
				l-6.3-4.2c-0.9-2.2-1.7-4.4-2.4-6.6c8.2,2.2,17,1.1,24.5-2.9c0,0,1.4-0.8,1.9-1.1s1.2-0.8,1.9-1.3l-9.6,14.2
				C64.6,457,60.1,457.9,56.8,455.7z M82.9,430c-2.3,3.4-5.3,6.4-8.7,8.7c-1.9-9.2-7.7-17.2-15.8-22c3.9-0.3,7.8,0.2,11.6,1.3
				c4,1.1,8.4,4,12.2,6.6c1.6,1.1,2.1,3.4,0.9,5C83,429.8,82.9,429.9,82.9,430z"/>
		</g>
	</g>
</g>
<g>
	<g transform="translate(-0.005 0.002)">
		<g>
			<linearGradient id="SVGID_9_" gradientUnits="userSpaceOnUse" x1="1116.66" y1="493.0931" x2="1169.2598" y2="493.0931">
				<stop  offset="0" style="stop-color:#011434"/>
				<stop  offset="1" style="stop-color:#02193A"/>
			</linearGradient>
			<path class="st9" d="M1150.8,476.9L1150.8,476.9c-3.4-0.5-6.8-0.4-10.1,0.1c0,0-2.3,0.4-2.4,0.4c1.8-2.4,3.9-4.6,6.3-6.4l9.6,6.5
				C1154.1,477.5,1152,477.1,1150.8,476.9z M1157.8,501.8c-7.5,4.2-16.5,5.2-24.7,2.7c-2-9-1-17.2,3.3-24.4c1.3-0.4,2.6-0.7,3.9-1
				C1149.5,483.5,1156,491.9,1157.8,501.8z M1130.9,503.8c0.5,2.6,1.2,5.2,2.2,7.6l-14.8-10c-1.7-1.1-2.1-3.4-1-5l19.1-28.3
				c0.7-1,2-1.3,3-0.6l3.3,2.3c-2.9,2.5-5.5,5.4-7.6,8.6c0,0-1,1.7-1.6,2.8l0,0C1130.9,486.4,1129,494,1130.9,503.8z M1142.3,517.7
				l-6.3-4.2c-0.9-2.2-1.7-4.4-2.4-6.6c8.2,2.2,17,1.1,24.5-2.9c0,0,1.4-0.8,1.9-1.1c0.5-0.3,1.2-0.8,1.9-1.3l-9.6,14.2
				C1150.1,519.1,1145.6,520,1142.3,517.7z M1168.4,492.1c-2.3,3.4-5.3,6.4-8.7,8.7c-1.9-9.2-7.7-17.2-15.8-22
				c3.9-0.3,7.8,0.2,11.6,1.3c4,1.1,8.4,4,12.2,6.6c1.6,1.1,2.1,3.4,0.9,5C1168.5,491.8,1168.5,492,1168.4,492.1z"/>
		</g>
	</g>
</g>
<g>
	<g transform="translate(-0.005 0.002)">
		<g>
			<linearGradient id="SVGID_10_" gradientUnits="userSpaceOnUse" x1="967.9123" y1="98.0239" x2="1020.512" y2="98.0239">
				<stop  offset="0" style="stop-color:#011434"/>
				<stop  offset="1" style="stop-color:#02193A"/>
			</linearGradient>
			<path class="st10" d="M1002,81.8L1002,81.8c-3.4-0.5-6.8-0.4-10.1,0.1c0,0-2.3,0.4-2.4,0.4c1.8-2.4,3.9-4.6,6.3-6.4l9.6,6.5
				C1005.4,82.5,1003.2,82,1002,81.8z M1009.1,106.8c-7.5,4.2-16.5,5.2-24.7,2.7c-2-9-1-17.2,3.3-24.4c1.3-0.4,2.6-0.7,3.9-1
				C1000.7,88.4,1007.2,96.9,1009.1,106.8z M982.1,108.7c0.5,2.6,1.2,5.2,2.2,7.6l-14.8-10c-1.7-1.1-2.1-3.4-1-5l19.1-28.3
				c0.7-1,2-1.3,3-0.6l3.3,2.3c-2.9,2.5-5.5,5.4-7.6,8.6c0,0-1,1.7-1.6,2.8l0,0C982.2,91.4,980.2,98.9,982.1,108.7z M993.6,122.7
				l-6.3-4.2c-0.9-2.2-1.7-4.4-2.4-6.6c8.2,2.2,17,1.1,24.5-2.9c0,0,1.4-0.8,1.9-1.1s1.2-0.8,1.9-1.3l-9.6,14.2
				C1001.4,124,996.9,124.9,993.6,122.7z M1019.7,97c-2.3,3.4-5.3,6.4-8.7,8.7c-1.9-9.2-7.7-17.2-15.8-22c3.9-0.3,7.8,0.2,11.6,1.3
				c4,1.1,8.4,4,12.2,6.6c1.6,1.1,2.1,3.4,0.9,5C1019.8,96.8,1019.7,96.9,1019.7,97z"/>
		</g>
	</g>
</g>
<g>
	<g transform="translate(-0.005 0.002)">
		<g>
			<linearGradient id="SVGID_11_" gradientUnits="userSpaceOnUse" x1="335.4513" y1="473.7403" x2="469.0104" y2="473.7403">
				<stop  offset="0" style="stop-color:#011434"/>
				<stop  offset="1" style="stop-color:#02132F"/>
			</linearGradient>
			<path class="st11" d="M422,432.6L422,432.6c-8.5-1.2-17.2-1.1-25.6,0.3c0,0-5.8,1-6.2,1.1c4.5-6.2,9.9-11.6,16-16.2l24.4,16.5
				C430.5,434.3,425.1,433.1,422,432.6z M440,496c-19.1,10.8-41.8,13.3-62.8,6.9c-5.2-22.7-2.4-43.6,8.5-62c3.3-1.1,6.6-1.9,10-2.5
				C418.8,449.3,435.3,470.8,440,496z M371.5,501c1.3,6.6,3.1,13.1,5.5,19.4L339.5,495c-4.2-2.8-5.3-8.5-2.5-12.7l48.5-71.8
				c1.7-2.5,5.1-3.2,7.7-1.5l8.5,5.7c-7.4,6.3-13.9,13.7-19.4,21.8c0,0-2.6,4.3-4,7.1l0,0C371.7,456.8,366.7,476,371.5,501z
				 M400.6,536.3l-15.9-10.8c-2.4-5.5-4.4-11.1-6-16.8c20.9,5.5,43.1,2.9,62.2-7.3c0,0,3.6-2.1,4.8-2.8s3.1-2,4.7-3.2l-24.3,35.9
				C420.4,539.8,409,542,400.6,536.3z M466.8,471.1c-5.9,8.7-13.4,16.2-22.2,22c-4.9-23.5-19.5-43.8-40.1-55.9
				c9.9-0.7,19.9,0.4,29.4,3.4c10,2.7,21.3,10.2,31,16.9c4.2,2.9,5.2,8.5,2.4,12.7C467.2,470.5,467,470.9,466.8,471.1z"/>
		</g>
	</g>
</g>
<g>
	<g transform="translate(-0.005 0.002)">
		<g>
			<linearGradient id="SVGID_12_" gradientUnits="userSpaceOnUse" x1="633.1967" y1="138.8133" x2="766.7559" y2="138.8133">
				<stop  offset="0" style="stop-color:#011434"/>
				<stop  offset="1" style="stop-color:#02132F"/>
			</linearGradient>
			<path class="st12" d="M719.8,97.7L719.8,97.7c-8.5-1.2-17.2-1.1-25.6,0.3c0,0-5.8,1-6.2,1.1c4.5-6.2,9.9-11.6,16-16.2l24.4,16.5
				C728.3,99.3,722.9,98.2,719.8,97.7z M737.7,161c-19.1,10.8-41.8,13.3-62.8,6.9c-5.2-22.7-2.4-43.6,8.5-62c3.3-1.1,6.6-1.9,10-2.5
				C716.6,114.4,733,135.8,737.7,161z M669.3,166c1.3,6.6,3.1,13.1,5.5,19.4l-37.6-25.4c-4.2-2.8-5.3-8.5-2.5-12.7l48.5-71.8
				c1.7-2.5,5.1-3.2,7.7-1.5l8.5,5.7c-7.4,6.3-13.9,13.7-19.4,21.8c0,0-2.6,4.3-4,7.1l0,0C669.5,121.9,664.4,141.1,669.3,166z
				 M698.4,201.4l-15.9-10.8c-2.4-5.5-4.4-11.1-6-16.8c20.9,5.5,43.1,2.9,62.2-7.3c0,0,3.6-2.1,4.8-2.8c1.2-0.7,3.1-2,4.7-3.2
				l-24.3,35.9C718.2,204.8,706.8,207,698.4,201.4z M764.6,136.2c-5.9,8.7-13.4,16.2-22.2,22c-4.9-23.5-19.5-43.8-40.1-55.9
				c9.9-0.7,19.9,0.4,29.4,3.4c10,2.7,21.3,10.2,31,16.9c4.2,2.9,5.2,8.5,2.4,12.7C764.9,135.6,764.8,135.9,764.6,136.2z"/>
		</g>
	</g>
</g>
<g>
	<g transform="translate(-0.005 0.002)">
		<g>
			<linearGradient id="SVGID_13_" gradientUnits="userSpaceOnUse" x1="549.1873" y1="506.3206" x2="682.7464" y2="506.3206">
				<stop  offset="0" style="stop-color:#011434"/>
				<stop  offset="1" style="stop-color:#02132F"/>
			</linearGradient>
			<path class="st13" d="M635.8,465.2L635.8,465.2c-8.5-1.2-17.2-1.1-25.6,0.3c0,0-5.8,1-6.2,1.1c4.5-6.2,9.9-11.6,16-16.2
				l24.4,16.5C644.3,466.8,638.9,465.7,635.8,465.2z M653.7,528.5c-19.1,10.8-41.8,13.3-62.8,6.9c-5.2-22.7-2.4-43.6,8.5-62
				c3.3-1.1,6.6-1.9,10-2.5C632.5,481.9,649,503.3,653.7,528.5z M585.3,533.5c1.3,6.6,3.1,13.1,5.5,19.4l-37.6-25.4
				c-4.2-2.8-5.3-8.5-2.5-12.7l48.5-71.8c1.7-2.5,5.1-3.2,7.7-1.5l8.5,5.7c-7.4,6.3-13.9,13.7-19.4,21.8c0,0-2.6,4.3-4,7.1l0,0
				C585.5,489.4,580.4,508.6,585.3,533.5z M614.4,568.9l-15.9-10.8c-2.4-5.5-4.4-11.1-6-16.8c20.9,5.5,43.1,2.9,62.2-7.3
				c0,0,3.6-2.1,4.8-2.8s3.1-2,4.7-3.2L639.9,564C634.2,572.3,622.8,574.6,614.4,568.9z M680.6,503.7c-5.9,8.7-13.4,16.2-22.2,22
				c-4.9-23.5-19.5-43.8-40.1-55.9c9.9-0.7,19.9,0.4,29.4,3.4c10,2.7,21.3,10.2,31,16.9c4.2,2.9,5.2,8.5,2.4,12.7
				C680.9,503.1,680.7,503.4,680.6,503.7z"/>
		</g>
	</g>
</g>
<g>
	<g transform="translate(-0.005 0.002)">
		<g>
			<linearGradient id="SVGID_14_" gradientUnits="userSpaceOnUse" x1="1044.7767" y1="137.4086" x2="1234.5776" y2="137.4086">
				<stop  offset="0" style="stop-color:#011434"/>
				<stop  offset="1" style="stop-color:#02132F"/>
			</linearGradient>
			<path class="st14" d="M1167.8,79L1167.8,79c-12.1-1.8-24.4-1.6-36.4,0.5c0,0-8.2,1.4-8.8,1.5c6.4-8.7,14.1-16.5,22.7-23.1
				l34.7,23.4C1179.9,81.3,1172.2,79.7,1167.8,79z M1193.3,169c-27.2,15.3-59.4,18.8-89.2,9.9c-7.3-32.3-3.4-62,12.1-88.2
				c4.6-1.5,9.4-2.7,14.2-3.6C1163.2,102.7,1186.7,133.2,1193.3,169z M1096.1,176.1c1.9,9.4,4.5,18.6,7.8,27.6l-53.4-36.1
				c-6-4-7.5-12.1-3.5-18.1l68.9-102c2.4-3.6,7.3-4.5,10.9-2.1l12,8.1c-10.6,9-19.8,19.4-27.6,31c0,0-3.7,6.1-5.6,10.1l0,0
				C1096.3,113.4,1089.2,140.7,1096.1,176.1z M1137.4,226.3l-22.6-15.3c-3.4-7.8-6.2-15.8-8.6-23.9c29.7,7.8,61.3,4.1,88.4-10.4
				c0,0,5.1-3,6.8-4c1.7-1,4.4-2.8,6.7-4.5l-34.5,51.1C1165.6,231.2,1149.4,234.4,1137.4,226.3z M1231.5,133.7
				c-8.3,12.4-19,23-31.5,31.2c-7-33.3-27.7-62.2-57-79.4c14.1-1,28.3,0.6,41.8,4.9c14.3,3.8,30.3,14.5,44.1,24
				c5.9,4.1,7.4,12.1,3.4,18.1C1232,132.9,1231.7,133.3,1231.5,133.7z"/>
		</g>
	</g>
</g>
</svg>
