<?xml version="1.0" encoding="utf-8"?>
<!-- Generator: Adobe Illustrator 25.0.0, SVG Export Plug-In . SVG Version: 6.00 Build 0)  -->
<svg version="1.1" id="Camada_1" xmlns="http://www.w3.org/2000/svg" xmlns:xlink="http://www.w3.org/1999/xlink" x="0px" y="0px"
	 viewBox="0 0 500 401.8" style="enable-background:new 0 0 500 401.8;" xml:space="preserve">
<style type="text/css">
	.st0{fill:#013466;}
	.st1{fill:#022251;}
	.st2{fill:#03447A;}
</style>
<polygon class="st0" points="488.6,388.9 13.8,388.9 70.2,259.9 432,259.9 "/>
<rect x="70.2" y="18.5" class="st0" width="359.8" height="216.9"/>
<g>
	<path class="st1" d="M64.8,5.6l-0.3,120.5c-0.2,84.8-0.1,120.3-0.1,124c4.3,0,9.5,0,185.7,0h185.7c0-2.5,0.1-46.3-0.1-125
		L435.4,5.6H250.1H64.8z M421.2,121.5v95.3H250.1H79v-95.3V26.1h171.1h171.1V121.5z"/>
	<path class="st1" d="M33.8,319.8c-34.7,69.6-33.3,65.5-26.6,71.8l3.4,3.2h239.5h239.5l3.4-3.2c6.6-6.3,8.1-2.1-26.6-71.8
		l-31.5-62.9H250.1H65.3L33.8,319.8z M437.6,297.8c8.7,18.3,16,33.8,16.4,34.7c0.6,1.6-14.1,1.7-203.9,1.7
		c-112.5,0-204.5-0.3-204.5-0.6c0-0.3,7.3-15.9,16.3-34.7l16.2-34.1h171.8h171.7L437.6,297.8z M300,339.8c0,0.4,1.6,9.6,3.4,20.4
		c1.9,10.9,3.4,20.6,3.4,21.8c0,2-0.3,2-56.7,2h-56.7v-2.3c0-1.2,1.6-11,3.4-21.7c1.9-10.8,3.4-19.8,3.4-20.3
		c0-0.4,22.5-0.7,49.9-0.7C277.6,339,300,339.3,300,339.8z"/>
	<path class="st1" d="M81.5,269.2c-1.2,3.1-0.5,3.4,6.8,3.1c6.5-0.3,7.7-0.6,9-2.5l1.4-2.1h-8.3C83.8,267.6,82,267.9,81.5,269.2z"/>
	<path class="st1" d="M101.6,269.5c-0.6,1-0.7,2.1-0.4,2.4c0.3,0.3,3.8,0.6,7.7,0.6c6.1,0,7.3-0.3,8.2-1.9c0.5-1.1,1-2.1,1-2.4
		c0-0.3-3.5-0.6-7.8-0.6C103.7,267.6,102.3,267.9,101.6,269.5z"/>
	<path class="st1" d="M121.6,269.2c-1.2,3.1-0.5,3.4,7.3,3.1c7.2-0.3,8.1-0.5,8.8-2.5c0.8-2.1,0.7-2.1-7.3-2.1
		C123.9,267.6,122.1,267.9,121.6,269.2z"/>
	<path class="st1" d="M142.2,268.3c-0.4,0.3-0.7,1.5-0.7,2.4c0,1.6,0.9,1.8,7.1,1.8c7,0,9.5-1,9.5-3.6c0-1-2.1-1.3-7.6-1.3
		C146.3,267.6,142.5,267.9,142.2,268.3z"/>
	<path class="st1" d="M161.7,269.3c-1.1,2.6,0.7,3.3,8.2,3c6.4-0.3,7.2-0.5,7.9-2.5c0.8-2.1,0.7-2.1-7.3-2.1
		C163.7,267.6,162.2,267.9,161.7,269.3z"/>
	<path class="st1" d="M181.6,270.1c0,2.5,0,2.5,8.1,2.3c7.4-0.3,8-0.5,8.3-2.5c0.3-2.1,0.1-2.1-8-2.1
		C181.7,267.6,181.6,267.6,181.6,270.1z"/>
	<path class="st1" d="M201.9,269.7c-0.7,2.6,0.6,3,8.7,2.6c6.2-0.3,6.7-0.5,7-2.5c0.3-2.1,0.1-2.1-7.4-2.1
		C203.2,267.6,202.4,267.8,201.9,269.7z"/>
	<path class="st1" d="M221.9,269.8c0.3,2.1,0.8,2.3,8.1,2.3s7.8-0.1,8.1-2.3c0.3-2.1,0.1-2.1-8.1-2.1
		C221.8,267.6,221.6,267.7,221.9,269.8z"/>
	<path class="st1" d="M242.3,270.1c0,2.4,0.1,2.4,7.8,2.4c7.7,0,7.8,0,7.8-2.4s-0.1-2.4-7.8-2.4
		C242.4,267.6,242.3,267.6,242.3,270.1z"/>
	<path class="st1" d="M262,269.8c0.3,2.1,0.9,2.3,8.4,2.5c8,0.3,8,0.3,8-2.3c0-2.4-0.1-2.4-8.4-2.4
		C261.9,267.6,261.7,267.7,262,269.8z"/>
	<path class="st1" d="M282.6,269.8c0.3,2.1,0.9,2.3,7.5,2.5c7.6,0.3,9.4-0.4,8.3-3c-0.5-1.4-2.1-1.7-8.4-1.7
		C282.5,267.6,282.3,267.7,282.6,269.8z"/>
	<path class="st1" d="M301.9,268.5c0,3.4,1.3,4,8.9,4s7.7,0,7.7-2.4s-0.1-2.4-8.3-2.4C305.6,267.6,301.9,268,301.9,268.5z"/>
	<path class="st1" d="M322.6,269.8c0.3,2.1,0.9,2.3,8.4,2.5c7.9,0.3,8.6,0,7.4-3.1c-0.5-1.3-2.1-1.6-8.4-1.6
		C322.5,267.6,322.3,267.7,322.6,269.8z"/>
	<path class="st1" d="M342,268.2c0,0.3,0.5,1.4,1,2.4c0.9,1.6,2.1,1.9,8.2,1.9c3.9,0,7.3-0.3,7.6-0.6c0.3-0.3,0.4-1.4,0.1-2.4
		c-0.5-1.7-1.5-1.9-8.7-1.9C345.7,267.6,342,267.9,342,268.2z"/>
	<path class="st1" d="M362.4,269.8c0.7,2.1,1.6,2.3,8.8,2.5c7.8,0.3,8.5,0,7.3-3.1c-0.5-1.3-2.3-1.6-8.8-1.6
		C361.8,267.6,361.7,267.6,362.4,269.8z"/>
	<path class="st1" d="M382.1,268.2c0,0.3,0.5,1.4,1,2.4c0.9,1.6,2.1,1.9,8.8,1.9c4.3,0,7.8-0.3,7.8-0.6c0-0.3-0.5-1.4-1-2.4
		c-0.9-1.6-2.1-1.9-8.8-1.9C385.6,267.6,382.1,267.9,382.1,268.2z"/>
	<path class="st1" d="M402.8,269.8c1.3,2,2.4,2.3,9,2.5c7.3,0.3,8,0,6.8-3.1c-0.5-1.3-2.3-1.6-8.9-1.6h-8.3L402.8,269.8z"/>
	<path class="st1" d="M77,278.3c-2.3,4.6-2.3,4.7,8.6,4.2l8-0.4l1.5-3.4c0.8-1.9,1.5-3.6,1.5-3.8c0-0.2-3.9-0.4-8.8-0.4H79L77,278.3
		z"/>
	<path class="st1" d="M100.5,274.9c0,0.2-0.7,2-1.5,3.9l-1.5,3.5h9.2h9.2l1.1-3c0.6-1.8,1.1-3.5,1.1-3.9c0-0.5-3.9-0.9-8.8-0.9
		C104.5,274.5,100.5,274.7,100.5,274.9z"/>
	<path class="st1" d="M121.2,278.1c-0.6,2-1,3.7-0.9,3.8c0.2,0.2,15.2,0.7,16.9,0.5c0.7-0.1,1.5-1.2,1.8-2.4c0.3-1.3,0.9-3,1.2-3.9
		c0.5-1.4-0.6-1.6-8.6-1.6h-9.3L121.2,278.1z"/>
	<path class="st1" d="M144.2,275.2c-0.3,0.5-0.8,2.3-1.2,3.9l-0.7,3.2l6.3,0.2c11.7,0.3,11.9,0.3,13-4.9l0.7-3.1h-8.9
		C148.6,274.5,144.4,274.8,144.2,275.2z"/>
	<path class="st1" d="M165.2,278.4l-1,3.9l5.1,0.2c5.6,0.2,12.6-0.2,13.1-0.7c0.2-0.2,0.7-2,1.2-3.8l0.8-3.5h-9.1h-9.1L165.2,278.4z
		"/>
	<path class="st1" d="M188.1,275.7c-2,6.2-1.8,6.7,2.1,6.8c3.6,0.1,14.4-0.3,14.6-0.6c0.1,0,0.4-1.8,0.8-3.8l0.7-3.6h-8.9
		C191,274.5,188.3,274.9,188.1,275.7z"/>
	<path class="st1" d="M209.4,277.9c-0.3,2-0.4,3.7-0.2,3.9c0.6,0.6,5.3,0.9,12.3,0.7l6.1-0.2v-3.9v-3.9h-8.8h-8.7L209.4,277.9z"/>
	<path class="st1" d="M231.5,278.3c0,2.1,0.5,3.9,1.3,4.2c0.6,0.2,4.8,0.2,9.3,0l8-0.4v-3.8v-3.8h-9.3h-9.3V278.3z"/>
	<path class="st1" d="M254,278.4v3.9h8.8h8.8v-3.9v-3.9h-8.8H254V278.4z"/>
	<path class="st1" d="M275.5,278.3v3.9l8.3,0.3c10,0.4,10.3,0.3,10.3-2.6c0-5.1-0.6-5.4-9.9-5.4h-8.7V278.3z"/>
	<path class="st1" d="M297.6,278.1c0.4,2.1,0.7,3.8,0.8,3.9c0.4,0.5,17.1,0.7,17.6,0.2c0.3-0.3,0.3-2.1-0.1-4.1l-0.6-3.6h-9.2h-9.2
		L297.6,278.1z"/>
	<path class="st1" d="M319.8,278c0.3,2,0.7,3.7,0.9,3.8c0.4,0.4,11.3,0.8,15.1,0.7l3.1-0.2l-1-3.9l-1-3.9H328h-8.8L319.8,278z"/>
	<path class="st1" d="M341.5,277.6c0.4,1.8,1.1,3.6,1.5,4.1c0.9,0.9,16.4,1.1,17.3,0.2c0.3-0.3,0.2-2-0.3-3.7l-1-3.2l-9.1-0.3
		l-9.1-0.3L341.5,277.6z"/>
	<path class="st1" d="M363.7,277.6c0.6,1.8,1.4,3.6,1.9,4.1c0.8,0.9,37.8,1.1,38.7,0.3c0.2-0.3-0.4-2.1-1.3-4l-1.8-3.5H382h-19.4
		L363.7,277.6z"/>
	<path class="st1" d="M405.6,275c0,1,3.1,6.8,3.9,7.3c0.5,0.3,4.1,0.4,8.2,0.2l7.4-0.4l-2-3.8l-2-3.8h-7.8
		C409.1,274.5,405.6,274.7,405.6,275z"/>
	<path class="st1" d="M74.5,285.1c-1.1,0.7-4.3,6.4-4.3,7.5c0,0.3,6.9,0.5,15.4,0.5H101l1.6-3.8c1-2.1,1.4-4.1,1.1-4.4
		C102.8,284,75.7,284.2,74.5,285.1z"/>
	<path class="st1" d="M107.9,286.4c-0.8,1.3-1.7,3.2-2.1,4.4c-0.6,2.3-0.5,2.3,8.6,2.3h9.3l1.5-3.7c0.8-2,1.3-3.9,1-4.4
		c-0.2-0.4-4.1-0.7-8.6-0.7C110.1,284.3,109.2,284.5,107.9,286.4z"/>
	<path class="st1" d="M131.1,285.4c-0.6,0.7-1.5,2.7-2.1,4.4l-1.1,3.2h9.5h9.6l1-3.9c0.6-2.1,0.9-4.1,0.6-4.4
		C147.4,283.7,132,284.3,131.1,285.4z"/>
	<path class="st1" d="M153.6,285.4c-0.6,0.7-1.4,2.7-1.8,4.4l-0.7,3.2h9.4c8.9,0,9.4-0.1,9.9-2.3c1.4-6.4,1.8-6.1-7.4-6.4
		C157,284.3,154.3,284.6,153.6,285.4z"/>
	<path class="st1" d="M176,285.9c-0.5,1-1.2,2.9-1.6,4.4l-0.6,2.7h9.7h9.7l0.5-3.7c0.2-2,0.2-3.9,0-4.4c-0.2-0.4-4.1-0.7-8.6-0.7
		C178.2,284.3,176.7,284.6,176,285.9z"/>
	<path class="st1" d="M198.3,286.8c-2.3,6-1.9,6.3,8.2,6.3h9.1l0.6-3.6c0.4-2,0.4-3.9,0.1-4.4c-0.3-0.4-4.2-0.8-8.8-0.8
		C199.4,284.3,199.1,284.4,198.3,286.8z"/>
	<path class="st1" d="M221.4,285c-0.2,0.4-0.7,2.4-1.1,4.4l-0.7,3.7h9.9h9.9l-0.3-4.2l-0.3-4.1l-8.5-0.3
		C225.7,284.4,221.7,284.6,221.4,285z"/>
	<path class="st1" d="M243.9,284.9c-0.4,0.4-0.7,2.4-0.7,4.5v3.7h9.4h9.3l-0.3-4.2l-0.3-4.1l-8.3-0.3
		C248.4,284.4,244.3,284.5,243.9,284.9z"/>
	<path class="st1" d="M266.4,284.9c-0.4,0.4-0.7,2.4-0.7,4.5v3.7h9.6h9.6l-0.5-4.2l-0.6-4.1l-8.3-0.3
		C270.9,284.4,266.8,284.5,266.4,284.9z"/>
	<path class="st1" d="M288.7,285.3c-0.4,0.6-0.4,2.5-0.1,4.4l0.7,3.3h9.4h9.3l-0.7-3.6c-0.4-2.1-0.9-4-1.1-4.4
		C305.4,283.9,289.4,284.2,288.7,285.3z"/>
	<path class="st1" d="M311.3,285.1c-0.3,0.5-0.3,2.4,0.1,4.4l0.6,3.6h9.6h9.6l-1.3-4.2l-1.2-4.1l-8.4-0.3
		C315.6,284.4,311.6,284.6,311.3,285.1z"/>
	<path class="st1" d="M333.8,285.1c-0.3,0.5-0.1,2.4,0.5,4.4l1,3.6h9.3h9.2l-0.6-2.7c-1.5-5.9-1.8-6.1-10.7-6.1
		C338,284.3,334.1,284.7,333.8,285.1z"/>
	<path class="st1" d="M356.3,285.1c-0.3,0.5,0,2.4,0.6,4.4l1.1,3.6h9.6h9.6l-1.8-4.2l-1.8-4.1l-8.4-0.3
		C360.6,284.4,356.6,284.6,356.3,285.1z"/>
	<path class="st1" d="M378.8,285.2c-1.3,2,2.3,7.7,5.3,8.8c2.3,0.8,3.5,2.1,5.2,6l2.1,4.9h11.9h12l-2-4.7c-1.1-2.5-3.1-7-4.6-10
		l-2.6-5.4l-13.4-0.3C385.2,284.4,379.1,284.7,378.8,285.2z"/>
	<path class="st1" d="M411.1,284.9c-0.3,0.4,0.3,2.3,1.4,4.4l1.9,3.8h7.8c4.3,0,7.8-0.2,7.8-0.5c0-1.2-3.2-6.8-4.3-7.5
		C424.4,284.2,412,284.1,411.1,284.9z"/>
	<path class="st1" d="M68,297.7c-1.6,1.9-3.7,5.7-3.7,6.5c0,0.3,8.5,0.6,18.9,0.6h18.8l1.6-3.8c1-2.1,1.4-4.1,1.1-4.4
		c-0.3-0.3-8.3-0.6-17.8-0.6C71.5,296,69.3,296.2,68,297.7z"/>
	<path class="st1" d="M109.9,296.7c-0.7,0.7-3.5,6.9-3.5,7.7c0,0.2,4.4,0.4,9.7,0.4h9.7l1.1-3c2-5.7,1.9-5.8-7.5-5.8
		C114.5,296,110.3,296.3,109.9,296.7z"/>
	<path class="st1" d="M132,298.6c-0.5,1.6-1.3,3.5-1.7,4.4c-0.7,1.6,0.2,1.8,9.1,1.8h9.8l1.1-3c2-5.7,1.9-5.8-8.1-5.8
		C132.9,296,132.9,296,132,298.6z"/>
	<path class="st1" d="M155.8,297.2c-0.3,0.7-0.9,2.7-1.5,4.4l-1,3.2h9.7c5.3,0,9.9-0.3,10.1-0.8c0.2-0.4,0.7-2.3,1.1-4.4l0.7-3.6
		h-9.4C158.9,296,156,296.4,155.8,297.2z"/>
	<path class="st1" d="M178.7,298.5c-2.3,6-2,6.3,8.7,6.3h9.7l0.5-3.7c0.2-2,0.2-3.9,0-4.4c-0.2-0.4-4.4-0.7-9.2-0.7
		C179.9,296,179.6,296.1,178.7,298.5z"/>
	<path class="st1" d="M202.2,298.5c-2.3,6-2,6.3,8.8,6.3h9.8v-4.4V296H212C203.3,296,203.1,296.1,202.2,298.5z"/>
	<path class="st1" d="M225.3,299c-1.2,6-1.4,5.8,9.2,5.8h9.8v-4.4V296H235h-9.1L225.3,299z"/>
	<path class="st1" d="M248.8,296.6c-0.4,0.4-0.7,2.4-0.7,4.5v3.7h9.9h9.8l-0.3-4.2l-0.3-4.1l-8.8-0.3
		C253.5,296.1,249.2,296.2,248.8,296.6z"/>
	<path class="st1" d="M272.1,297c-0.3,0.5-0.3,2.4,0.1,4.4l0.6,3.4h9.7h9.7l-0.6-3.2c-1-5.8-0.7-5.6-10.1-5.6
		C276.7,296,272.4,296.4,272.1,297z"/>
	<path class="st1" d="M295.1,297.4c0,0.7,0.3,2.7,0.6,4.4l0.7,3h9.7h9.7l-0.7-3.7c-0.4-2-0.9-3.9-1.1-4.4c-0.2-0.4-4.6-0.7-9.7-0.7
		C297.1,296,295.1,296.3,295.1,297.4z"/>
	<path class="st1" d="M318.5,297.4c0,0.7,0.3,2.7,0.6,4.4l0.7,3h9.6c5.4,0,9.7-0.3,9.7-0.8c0-0.4-0.5-2.3-1.1-4.4l-1-3.6h-9.2
		C320.6,296,318.5,296.3,318.5,297.4z"/>
	<path class="st1" d="M342,297.9c0,1.1,0.4,3,1,4.4c0.9,2.4,1.2,2.5,10.3,2.5c5.8,0,9.3-0.4,9.3-1c0-0.6-0.7-2.5-1.4-4.4l-1.5-3.4
		h-8.8C342.8,296,342,296.2,342,297.9z"/>
	<path class="st1" d="M365.3,296.6c-0.4,0.3-0.1,2.1,0.6,4.1l1.3,3.6l9.9,0.3l9.9,0.3l-1.8-4.2l-1.8-4.2l-8.7-0.3
		C369.8,296.1,365.6,296.2,365.3,296.6z"/>
	<path class="st1" d="M416.3,297c0,0.5,0.8,2.4,1.7,4.4l1.7,3.4h8.1c4.5,0,8.1-0.2,8.1-0.5c0-0.3-0.9-2.3-2-4.4l-2-3.9h-7.8
		C419.7,296,416.3,296.4,416.3,297z"/>
	<path class="st1" d="M59.9,312.6l-2.4,4.9h14.1h14.1l1.6-3.9c0.9-2.1,1.6-4.4,1.6-4.9c0-0.6-5.2-1-13.2-1H62.3L59.9,312.6z"/>
	<path class="st1" d="M93.3,308.9c-0.3,0.7-1.2,2.9-2.1,4.9l-1.6,3.7h10.2h10.2l1.6-4.6c0.9-2.5,1.6-4.7,1.6-4.9
		c0-0.2-4.4-0.3-9.7-0.3C96.7,307.7,93.7,308.1,93.3,308.9z"/>
	<path class="st1" d="M117.6,308.6c-0.3,0.6-1.2,2.7-2,4.9l-1.4,4h10.2h10.2l1-3.7c1.8-6.2,2-6.1-8.1-6.1
		C122.4,307.7,118,308.1,117.6,308.6z"/>
	<path class="st1" d="M140.5,311.8c-0.6,2.3-1.3,4.5-1.6,4.9c-0.2,0.5,4.2,0.8,9.8,0.8H159l1.1-4.3c0.6-2.4,1.1-4.6,1.1-4.9
		c0-0.3-4.4-0.6-9.8-0.6h-9.7L140.5,311.8z"/>
	<path class="st1" d="M165.6,308.5c-0.3,0.5-0.8,2.7-1.2,4.9l-0.7,4.1h9.9c10.8,0,11-0.1,11-7.1v-2.6h-9.2
		C170.3,307.7,165.9,308.1,165.6,308.5z"/>
	<path class="st1" d="M189.1,310.8c-1.4,6.9-1.6,6.7,9.1,6.7h9.7l0.6-3c1.4-6.9,1.6-6.7-9.1-6.7h-9.6L189.1,310.8z"/>
	<path class="st1" d="M213.6,308.4c-0.4,0.3-0.7,2.5-0.7,4.9v4.2h9.7h9.6l0.6-4.1c0.3-2.3,0.3-4.5,0.1-4.9
		C232.3,307.5,214.5,307.4,213.6,308.4z"/>
	<path class="st1" d="M237.4,312.6v4.9h9.8h9.8v-4.9v-4.9h-9.8h-9.8L237.4,312.6L237.4,312.6z"/>
	<path class="st1" d="M261.8,312.6v4.9h9.9h9.8l-0.3-4.7l-0.3-4.6l-9.5-0.3l-9.6-0.3L261.8,312.6L261.8,312.6z"/>
	<path class="st1" d="M285.3,309.6c0,1,0.3,3.2,0.6,4.9l0.7,3h9.6h9.7v-2.7c0-6.9-0.3-7-10.9-7C286.2,307.7,285.3,307.9,285.3,309.6
		z"/>
	<path class="st1" d="M309.7,310.4c0,7,0.2,7.1,11,7.1h9.9l-0.7-4.1c-0.4-2.1-0.9-4.4-1.2-4.9c-0.3-0.4-4.7-0.8-9.8-0.8h-9.2
		L309.7,310.4L309.7,310.4z"/>
	<path class="st1" d="M333.2,308.3c0,0.3,0.5,2.4,1.1,4.9l1.1,4.3h9.7c10.8,0,10.9-0.1,8.6-6.7l-1.1-3h-9.7
		C337.6,307.7,333.2,308,333.2,308.3z"/>
	<path class="st1" d="M357.7,308.9c0,0.7,0.5,2.9,1.1,4.9l1,3.7h30.2c20.3,0,30.3-0.3,30.3-1c0-0.6-0.9-2.8-2-4.9l-2-3.9H387
		C364.2,307.7,357.7,308,357.7,308.9z"/>
	<path class="st1" d="M421.2,308.1c0,0.2,0.9,2.3,2,4.9l2.1,4.5h8.8h8.7l-2.4-4.9l-2.4-4.9h-8.3
		C424.9,307.7,421.2,307.9,421.2,308.1z"/>
	<path class="st1" d="M55.7,321.6c-1.5,2-4.1,7.4-4.1,8.6c0,0.7,3.3,1,10,0.8l10.1-0.3l2.1-4.4c1.2-2.4,2.1-4.7,2.1-5.2
		C76,319.9,56.8,320.4,55.7,321.6z"/>
	<path class="st1" d="M79,324.6c-3,6.7-3.1,6.7,7.8,6.7h9.9l1.9-4.2c3-6.5,3.1-6.5-7.8-6.5h-9.9L79,324.6z"/>
	<path class="st1" d="M104,324.4c-2.7,6.8-2.7,6.8,8.2,6.8c10.8,0,10.6,0.1,12.5-7.1l1-3.6h-10.1h-10.1L104,324.4z"/>
	<path class="st1" d="M129.3,323.6c-2.9,7.2-3,7.1,8.1,7.4c11.1,0.3,10.7,0.6,12.4-7.4l0.7-3.1h-10h-9.9L129.3,323.6z"/>
	<path class="st1" d="M154.7,321.6c-1.4,4.1-2.1,8.5-1.7,9c0.3,0.3,32.4,0.6,71.3,0.6h70.7v-2.3c0-1.3-0.3-3.7-0.6-5.4l-0.6-3h-69.4
		C169.9,320.5,155,320.7,154.7,321.6z"/>
	<path class="st1" d="M299,323.6c0,7.6,0.1,7.6,11.4,7.6h10.2l-0.7-4.7c-0.3-2.5-0.8-4.9-1.1-5.4c-0.2-0.4-4.8-0.7-10.2-0.7H299
		V323.6z"/>
	<path class="st1" d="M323.8,324.1c1.4,7.5,0.7,7.1,11.9,7.1h10.4l-0.7-3.2c-1.8-7.8-1.4-7.5-12.3-7.5h-9.9L323.8,324.1z"/>
	<path class="st1" d="M347.9,320.7c0,0.2,0.7,2.6,1.5,5.4l1.6,5.1h10.2c5.7,0,10.3-0.1,10.3-0.3c0-0.2-0.7-2.6-1.5-5.4l-1.6-5.1
		h-10.2C352.5,320.5,347.9,320.5,347.9,320.7z"/>
	<path class="st1" d="M373.9,322.6c0.3,1.3,1.2,3.7,2,5.4l1.3,3.2h9.8c10.9,0,10.9,0.1,8.3-6.6l-1.7-4.2h-10.2
		C373.2,320.5,373.2,320.5,373.9,322.6z"/>
	<path class="st1" d="M398.7,320.6c0,0.2,0.9,2.4,1.9,5.2l1.9,4.9l10.5,0.3c8.2,0.2,10.4,0,10-1c-0.3-0.7-1.3-3.1-2.1-5.5l-1.7-4.1
		h-10.2C403.3,320.5,398.7,320.5,398.7,320.6z"/>
	<path class="st1" d="M424.2,321.1c0,0.4,1,2.7,2.1,5.2l2.1,4.4l10.1,0.3c11.2,0.3,11.3,0.2,7.7-6.2l-2.3-3.9l-10-0.3
		C428.6,320.5,424.1,320.7,424.2,321.1z"/>
</g>
<path class="st1" d="M176.4,107.7L176.4,107.7c-4.5-1.6-9.2-2.4-13.9-2.5c0,0-3.2-0.1-3.5-0.1c3.1-2.9,6.6-5.3,10.4-7.1l11.5,11.5
	C180.8,109.5,178,108.3,176.4,107.7z M179.4,144c-11.5,3.8-24.1,2.8-34.8-2.8c-0.4-12.9,3.3-23.9,11.1-32.8c1.9-0.2,3.8-0.3,5.7-0.3
	C172.9,116.4,179.5,129.8,179.4,144z M141.8,139.5c0,3.7,0.3,7.4,1,11.1L125,132.9c-2-2-2-5.2,0-7.2l33.9-33.9
	c1.2-1.2,3.1-1.2,4.3,0l4,4c-4.7,2.7-9,6-12.8,9.8c0,0-1.9,2.1-2.9,3.4l0,0C146.5,115.5,141.8,125.4,141.8,139.5z M153.8,161.7
	l-7.5-7.5c-0.7-3.2-1.2-6.5-1.5-9.8c10.8,5.2,23.1,6.1,34.5,2.6c0,0,2.2-0.8,2.9-1c0.7-0.3,1.9-0.8,2.9-1.2l-17,17
	C164.2,165.7,157.8,165.7,153.8,161.7z M196.6,133.3c-4.1,4.1-9,7.4-14.3,9.6c-0.2-13.2-6-25.8-15.9-34.6c5.5,0.7,10.8,2.3,15.6,4.9
	c5.2,2.5,10.5,7.8,15.1,12.4c2,2,1.9,5.2,0,7.2C196.9,133,196.8,133.2,196.6,133.3z"/>
<path class="st2" d="M220.7,114.3c0-6.1,5-11.1,11.1-11.1c6.1,0,11.1,5,11.1,11.1s-5,11.1-11.1,11.1c0,0,0,0,0,0
	c-6.1,0.1-11-4.8-11.1-10.9C220.7,114.5,220.7,114.4,220.7,114.3z M237.5,114.3c0.1-3.1-2.4-5.7-5.6-5.8c-3.1-0.1-5.7,2.4-5.8,5.6
	c0,0.1,0,0.1,0,0.2c-0.1,3.1,2.4,5.7,5.6,5.8c3.1,0.1,5.7-2.4,5.8-5.6C237.5,114.5,237.5,114.4,237.5,114.3z"/>
<path class="st2" d="M273.4,111.9v12.9H268v-12.2c0-2.9-1.7-4.3-4.2-4.3c-2.6,0-4.6,1.5-4.6,5.2v11.3h-5.4v-21h5.4v2.3
	c1.4-2,3.8-3.1,6.3-2.9C269.9,103.2,273.4,106.3,273.4,111.9z"/>
<path class="st2" d="M274,114.3c0-6.1,5-11.1,11.1-11.1c6.1,0,11.1,5,11.1,11.1s-5,11.1-11.1,11.1c0,0,0,0,0,0
	c-6.1,0.1-11-4.8-11.1-10.9C274,114.5,274,114.4,274,114.3z M290.8,114.3c0.1-3.1-2.4-5.7-5.6-5.8c-3.1-0.1-5.7,2.4-5.8,5.6
	c0,0.1,0,0.1,0,0.2c-0.1,3.1,2.4,5.7,5.6,5.8c3.1,0.1,5.7-2.4,5.8-5.6C290.8,114.5,290.8,114.4,290.8,114.3z"/>
<path class="st2" d="M316,103.8l-8,21h-6.2l-8-21h6l5.1,14.7l5.1-14.7H316z"/>
<path class="st2" d="M313.8,114.3c0-6.1,5-11.1,11.1-11.1c6.1,0,11.1,5,11.1,11.1s-5,11.1-11.1,11.1c0,0,0,0,0,0
	c-6.1,0.1-11-4.8-11.1-10.9C313.8,114.5,313.8,114.4,313.8,114.3z M330.6,114.3c0.1-3.1-2.4-5.7-5.6-5.8c-3.1-0.1-5.7,2.4-5.8,5.6
	c0,0.1,0,0.1,0,0.2c-0.1,3.1,2.4,5.7,5.6,5.8c3.1,0.1,5.7-2.4,5.8-5.6C330.6,114.5,330.6,114.4,330.6,114.3z"/>
<path class="st2" d="M251.9,138.9v12.9h-5.4v-12.6c0-2.5-1.3-4-3.5-4c-2.4,0-3.9,1.6-3.9,4.8v11.8h-5.4v-12.6c0-2.5-1.3-4-3.5-4
	c-2.3,0-3.9,1.6-3.9,4.8v11.8h-5.4v-21h5.4v2.2c1.3-1.9,3.5-3,5.8-2.8c2.3-0.1,4.5,1,5.7,3c1.4-2,3.8-3.2,6.3-3
	C248.7,130.2,251.9,133.6,251.9,138.9z"/>
<path class="st2" d="M264,147.5c1.8,0.1,3.5-0.7,4.7-2.1l4.4,2.5c-2.1,3-5.5,4.7-9.2,4.5c-7.1,0-11.5-4.8-11.5-11.1
	c-0.2-5.9,4.4-10.9,10.3-11.1c0.3,0,0.5,0,0.8,0c6.2,0,10.6,4.9,10.6,11.1c0,0.7-0.1,1.5-0.2,2.2h-15.8
	C258.9,146.3,261.2,147.5,264,147.5z M268.7,139.3c-0.4-2.5-2.7-4.3-5.2-4.2c-2.6-0.2-5,1.6-5.5,4.2H268.7z"/>
<path class="st2" d="M286.8,130.4v6.1c-2.8-0.3-6.4,0.9-6.4,5.3v10H275v-21h5.4v3.6C281.5,131.8,284,130.2,286.8,130.4z"/>
<path class="st2" d="M286.8,141.3c-0.1-6,4.6-11,10.6-11.1c0.2,0,0.3,0,0.5,0c3.9-0.1,7.5,2,9.4,5.4l-4.7,2.7
	c-0.9-1.8-2.8-2.9-4.8-2.8c-3.2,0.1-5.7,2.7-5.6,5.8c0.1,3.1,2.5,5.6,5.6,5.6c2,0.1,3.9-1,4.8-2.8l4.7,2.7c-3.1,5.3-9.9,7-15.1,3.9
	C288.9,148.9,286.8,145.2,286.8,141.3z"/>
<path class="st2" d="M329.9,130.8v21h-5.4v-2.5c-1.7,2-4.2,3.2-6.9,3.1c-5.6,0-10.2-4.8-10.2-11.1c0-6.3,4.6-11.1,10.2-11.1
	c2.6-0.1,5.2,1,6.9,3.1v-2.5H329.9z M324.4,141.3c0.1-3.2-2.5-5.9-5.7-5.9c-3.2-0.1-5.9,2.5-5.9,5.7c0,0.1,0,0.1,0,0.2
	c-0.1,3.2,2.5,5.9,5.7,5.9c3.2,0.1,5.9-2.5,5.9-5.7C324.4,141.5,324.4,141.4,324.4,141.3z"/>
<path class="st2" d="M353.2,122.4v29.4h-5.4v-2.5c-1.6,2.1-4.2,3.2-6.8,3.1c-5.6,0-10.3-4.8-10.3-11.1c0-6.3,4.6-11.1,10.3-11.1
	c2.6-0.1,5.2,1,6.8,3.1v-10.9H353.2z M347.7,141.3c0.1-3.2-2.5-5.9-5.7-5.9c-3.2-0.1-5.9,2.5-5.9,5.7c0,0.1,0,0.1,0,0.2
	c-0.1,3.2,2.5,5.9,5.7,5.9c3.2,0.1,5.9-2.5,5.9-5.7C347.7,141.5,347.7,141.4,347.7,141.3z"/>
<path class="st2" d="M354.1,141.3c0-6.1,5-11.1,11.1-11.1c6.1,0,11.1,5,11.1,11.1c0,6.1-5,11.1-11.1,11.1c0,0,0,0,0,0
	c-6.1,0.1-11-4.8-11.1-10.8C354.1,141.5,354.1,141.4,354.1,141.3z M370.9,141.3c-0.1-3.1-2.7-5.6-5.8-5.6c-3.1,0.1-5.6,2.7-5.6,5.8
	c0.1,3.1,2.6,5.6,5.7,5.6c3.1,0.1,5.6-2.4,5.7-5.5C370.9,141.5,370.9,141.4,370.9,141.3z"/>
</svg>
