<svg version="1.1" id="Camada_1" xmlns="http://www.w3.org/2000/svg" x="0" y="0" viewBox="0 0 500 401.8" xml:space="preserve"><style>.st0{fill:#013466}.st1{fill:#022251}.st2{fill:#03447a}</style><path class="st0" d="M488.6 388.9H13.8l56.4-129H432zM70.2 18.5H430v216.9H70.2z"/><path class="st1" d="M64.8 5.6l-.3 120.5c-.2 84.8-.1 120.3-.1 124h371.4c0-2.5.1-46.3-.1-125l-.3-119.5H64.8zm356.4 115.9v95.3H79V26.1h342.2v95.4zM33.8 319.8C-.9 389.4.5 385.3 7.2 391.6l3.4 3.2h479l3.4-3.2c6.6-6.3 8.1-2.1-26.6-71.8l-31.5-62.9H65.3l-31.5 62.9zm403.8-22c8.7 18.3 16 33.8 16.4 34.7.6 1.6-14.1 1.7-203.9 1.7-112.5 0-204.5-.3-204.5-.6s7.3-15.9 16.3-34.7l16.2-34.1h343.5l16 33zm-137.6 42c0 .4 1.6 9.6 3.4 20.4 1.9 10.9 3.4 20.6 3.4 21.8 0 2-.3 2-56.7 2h-56.7v-2.3c0-1.2 1.6-11 3.4-21.7 1.9-10.8 3.4-19.8 3.4-20.3 0-.4 22.5-.7 49.9-.7 27.5 0 49.9.3 49.9.8z"/><path class="st1" d="M81.5 269.2c-1.2 3.1-.5 3.4 6.8 3.1 6.5-.3 7.7-.6 9-2.5l1.4-2.1h-8.3c-6.6-.1-8.4.2-8.9 1.5zM101.6 269.5c-.6 1-.7 2.1-.4 2.4.3.3 3.8.6 7.7.6 6.1 0 7.3-.3 8.2-1.9.5-1.1 1-2.1 1-2.4 0-.3-3.5-.6-7.8-.6-6.6 0-8 .3-8.7 1.9zM121.6 269.2c-1.2 3.1-.5 3.4 7.3 3.1 7.2-.3 8.1-.5 8.8-2.5.8-2.1.7-2.1-7.3-2.1-6.5-.1-8.3.2-8.8 1.5zM142.2 268.3c-.4.3-.7 1.5-.7 2.4 0 1.6.9 1.8 7.1 1.8 7 0 9.5-1 9.5-3.6 0-1-2.1-1.3-7.6-1.3-4.2 0-8 .3-8.3.7zM161.7 269.3c-1.1 2.6.7 3.3 8.2 3 6.4-.3 7.2-.5 7.9-2.5.8-2.1.7-2.1-7.3-2.1-6.8-.1-8.3.2-8.8 1.6zM181.6 270.1c0 2.5 0 2.5 8.1 2.3 7.4-.3 8-.5 8.3-2.5.3-2.1.1-2.1-8-2.1-8.3-.2-8.4-.2-8.4 2.3zM201.9 269.7c-.7 2.6.6 3 8.7 2.6 6.2-.3 6.7-.5 7-2.5.3-2.1.1-2.1-7.4-2.1-7-.1-7.8.1-8.3 2zM221.9 269.8c.3 2.1.8 2.3 8.1 2.3s7.8-.1 8.1-2.3c.3-2.1.1-2.1-8.1-2.1-8.2-.1-8.4 0-8.1 2.1zM242.3 270.1c0 2.4.1 2.4 7.8 2.4s7.8 0 7.8-2.4-.1-2.4-7.8-2.4c-7.7-.1-7.8-.1-7.8 2.4zM262 269.8c.3 2.1.9 2.3 8.4 2.5 8 .3 8 .3 8-2.3 0-2.4-.1-2.4-8.4-2.4-8.1 0-8.3.1-8 2.2zM282.6 269.8c.3 2.1.9 2.3 7.5 2.5 7.6.3 9.4-.4 8.3-3-.5-1.4-2.1-1.7-8.4-1.7-7.5 0-7.7.1-7.4 2.2zM301.9 268.5c0 3.4 1.3 4 8.9 4s7.7 0 7.7-2.4-.1-2.4-8.3-2.4c-4.6-.1-8.3.3-8.3.8zM322.6 269.8c.3 2.1.9 2.3 8.4 2.5 7.9.3 8.6 0 7.4-3.1-.5-1.3-2.1-1.6-8.4-1.6-7.5 0-7.7.1-7.4 2.2zM342 268.2c0 .3.5 1.4 1 2.4.9 1.6 2.1 1.9 8.2 1.9 3.9 0 7.3-.3 7.6-.6.3-.3.4-1.4.1-2.4-.5-1.7-1.5-1.9-8.7-1.9-4.5 0-8.2.3-8.2.6zM362.4 269.8c.7 2.1 1.6 2.3 8.8 2.5 7.8.3 8.5 0 7.3-3.1-.5-1.3-2.3-1.6-8.8-1.6-7.9 0-8 0-7.3 2.2zM382.1 268.2c0 .3.5 1.4 1 2.4.9 1.6 2.1 1.9 8.8 1.9 4.3 0 7.8-.3 7.8-.6s-.5-1.4-1-2.4c-.9-1.6-2.1-1.9-8.8-1.9-4.3 0-7.8.3-7.8.6zM402.8 269.8c1.3 2 2.4 2.3 9 2.5 7.3.3 8 0 6.8-3.1-.5-1.3-2.3-1.6-8.9-1.6h-8.3l1.4 2.2zM77 278.3c-2.3 4.6-2.3 4.7 8.6 4.2l8-.4 1.5-3.4c.8-1.9 1.5-3.6 1.5-3.8 0-.2-3.9-.4-8.8-.4H79l-2 3.8zM100.5 274.9c0 .2-.7 2-1.5 3.9l-1.5 3.5h18.4l1.1-3c.6-1.8 1.1-3.5 1.1-3.9 0-.5-3.9-.9-8.8-.9-4.8 0-8.8.2-8.8.4zM121.2 278.1c-.6 2-1 3.7-.9 3.8.2.2 15.2.7 16.9.5.7-.1 1.5-1.2 1.8-2.4.3-1.3.9-3 1.2-3.9.5-1.4-.6-1.6-8.6-1.6h-9.3l-1.1 3.6zM144.2 275.2c-.3.5-.8 2.3-1.2 3.9l-.7 3.2 6.3.2c11.7.3 11.9.3 13-4.9l.7-3.1h-8.9c-4.8 0-9 .3-9.2.7zM165.2 278.4l-1 3.9 5.1.2c5.6.2 12.6-.2 13.1-.7.2-.2.7-2 1.2-3.8l.8-3.5h-18.2l-1 3.9zM188.1 275.7c-2 6.2-1.8 6.7 2.1 6.8 3.6.1 14.4-.3 14.6-.6.1 0 .4-1.8.8-3.8l.7-3.6h-8.9c-6.4 0-9.1.4-9.3 1.2zM209.4 277.9c-.3 2-.4 3.7-.2 3.9.6.6 5.3.9 12.3.7l6.1-.2v-7.8h-17.5l-.7 3.4zM231.5 278.3c0 2.1.5 3.9 1.3 4.2.6.2 4.8.2 9.3 0l8-.4v-7.6h-18.6v3.8zM254 278.4v3.9h17.6v-7.8H254v3.9zM275.5 278.3v3.9l8.3.3c10 .4 10.3.3 10.3-2.6 0-5.1-.6-5.4-9.9-5.4h-8.7v3.8zM297.6 278.1c.4 2.1.7 3.8.8 3.9.4.5 17.1.7 17.6.2.3-.3.3-2.1-.1-4.1l-.6-3.6h-18.4l.7 3.6zM319.8 278c.3 2 .7 3.7.9 3.8.4.4 11.3.8 15.1.7l3.1-.2-1-3.9-1-3.9H319.2l.6 3.5zM341.5 277.6c.4 1.8 1.1 3.6 1.5 4.1.9.9 16.4 1.1 17.3.2.3-.3.2-2-.3-3.7l-1-3.2-9.1-.3-9.1-.3.7 3.2zM363.7 277.6c.6 1.8 1.4 3.6 1.9 4.1.8.9 37.8 1.1 38.7.3.2-.3-.4-2.1-1.3-4l-1.8-3.5H362.6l1.1 3.1zM405.6 275c0 1 3.1 6.8 3.9 7.3.5.3 4.1.4 8.2.2l7.4-.4-2-3.8-2-3.8h-7.8c-4.2 0-7.7.2-7.7.5zM74.5 285.1c-1.1.7-4.3 6.4-4.3 7.5 0 .3 6.9.5 15.4.5H101l1.6-3.8c1-2.1 1.4-4.1 1.1-4.4-.9-.9-28-.7-29.2.2zM107.9 286.4c-.8 1.3-1.7 3.2-2.1 4.4-.6 2.3-.5 2.3 8.6 2.3h9.3l1.5-3.7c.8-2 1.3-3.9 1-4.4-.2-.4-4.1-.7-8.6-.7-7.5 0-8.4.2-9.7 2.1zM131.1 285.4c-.6.7-1.5 2.7-2.1 4.4l-1.1 3.2H147l1-3.9c.6-2.1.9-4.1.6-4.4-1.2-1-16.6-.4-17.5.7zM153.6 285.4c-.6.7-1.4 2.7-1.8 4.4l-.7 3.2h9.4c8.9 0 9.4-.1 9.9-2.3 1.4-6.4 1.8-6.1-7.4-6.4-6 0-8.7.3-9.4 1.1zM176 285.9c-.5 1-1.2 2.9-1.6 4.4l-.6 2.7h19.4l.5-3.7c.2-2 .2-3.9 0-4.4-.2-.4-4.1-.7-8.6-.7-6.9.1-8.4.4-9.1 1.7zM198.3 286.8c-2.3 6-1.9 6.3 8.2 6.3h9.1l.6-3.6c.4-2 .4-3.9.1-4.4-.3-.4-4.2-.8-8.8-.8-8.1 0-8.4.1-9.2 2.5zM221.4 285c-.2.4-.7 2.4-1.1 4.4l-.7 3.7h19.8l-.3-4.2-.3-4.1-8.5-.3c-4.6-.1-8.6.1-8.9.5zM243.9 284.9c-.4.4-.7 2.4-.7 4.5v3.7H261.9l-.3-4.2-.3-4.1-8.3-.3c-4.6-.1-8.7 0-9.1.4zM266.4 284.9c-.4.4-.7 2.4-.7 4.5v3.7h19.2l-.5-4.2-.6-4.1-8.3-.3c-4.6-.1-8.7 0-9.1.4zM288.7 285.3c-.4.6-.4 2.5-.1 4.4l.7 3.3H308l-.7-3.6c-.4-2.1-.9-4-1.1-4.4-.8-1.1-16.8-.8-17.5.3zM311.3 285.1c-.3.5-.3 2.4.1 4.4l.6 3.6h19.2l-1.3-4.2-1.2-4.1-8.4-.3c-4.7-.1-8.7.1-9 .6zM333.8 285.1c-.3.5-.1 2.4.5 4.4l1 3.6h18.5l-.6-2.7c-1.5-5.9-1.8-6.1-10.7-6.1-4.5 0-8.4.4-8.7.8zM356.3 285.1c-.3.5 0 2.4.6 4.4l1.1 3.6h19.2l-1.8-4.2-1.8-4.1-8.4-.3c-4.6-.1-8.6.1-8.9.6zM378.8 285.2c-1.3 2 2.3 7.7 5.3 8.8 2.3.8 3.5 2.1 5.2 6l2.1 4.9h23.9l-2-4.7c-1.1-2.5-3.1-7-4.6-10l-2.6-5.4-13.4-.3c-7.5-.1-13.6.2-13.9.7zM411.1 284.9c-.3.4.3 2.3 1.4 4.4l1.9 3.8h7.8c4.3 0 7.8-.2 7.8-.5 0-1.2-3.2-6.8-4.3-7.5-1.3-.9-13.7-1-14.6-.2zM68 297.7c-1.6 1.9-3.7 5.7-3.7 6.5 0 .3 8.5.6 18.9.6H102l1.6-3.8c1-2.1 1.4-4.1 1.1-4.4-.3-.3-8.3-.6-17.8-.6-15.4 0-17.6.2-18.9 1.7zM109.9 296.7c-.7.7-3.5 6.9-3.5 7.7 0 .2 4.4.4 9.7.4h9.7l1.1-3c2-5.7 1.9-5.8-7.5-5.8-4.9 0-9.1.3-9.5.7zM132 298.6c-.5 1.6-1.3 3.5-1.7 4.4-.7 1.6.2 1.8 9.1 1.8h9.8l1.1-3c2-5.7 1.9-5.8-8.1-5.8-9.3 0-9.3 0-10.2 2.6zM155.8 297.2c-.3.7-.9 2.7-1.5 4.4l-1 3.2h9.7c5.3 0 9.9-.3 10.1-.8.2-.4.7-2.3 1.1-4.4l.7-3.6h-9.4c-6.6 0-9.5.4-9.7 1.2zM178.7 298.5c-2.3 6-2 6.3 8.7 6.3h9.7l.5-3.7c.2-2 .2-3.9 0-4.4-.2-.4-4.4-.7-9.2-.7-8.5 0-8.8.1-9.7 2.5zM202.2 298.5c-2.3 6-2 6.3 8.8 6.3h9.8V296H212c-8.7 0-8.9.1-9.8 2.5zM225.3 299c-1.2 6-1.4 5.8 9.2 5.8h9.8V296h-18.4l-.6 3zM248.8 296.6c-.4.4-.7 2.4-.7 4.5v3.7H267.8l-.3-4.2-.3-4.1-8.8-.3c-4.9-.1-9.2 0-9.6.4zM272.1 297c-.3.5-.3 2.4.1 4.4l.6 3.4h19.4l-.6-3.2c-1-5.8-.7-5.6-10.1-5.6-4.8 0-9.1.4-9.4 1zM295.1 297.4c0 .7.3 2.7.6 4.4l.7 3h19.4l-.7-3.7c-.4-2-.9-3.9-1.1-4.4-.2-.4-4.6-.7-9.7-.7-7.2 0-9.2.3-9.2 1.4zM318.5 297.4c0 .7.3 2.7.6 4.4l.7 3h9.6c5.4 0 9.7-.3 9.7-.8 0-.4-.5-2.3-1.1-4.4l-1-3.6h-9.2c-7.2 0-9.3.3-9.3 1.4zM342 297.9c0 1.1.4 3 1 4.4.9 2.4 1.2 2.5 10.3 2.5 5.8 0 9.3-.4 9.3-1s-.7-2.5-1.4-4.4l-1.5-3.4h-8.8c-8.1 0-8.9.2-8.9 1.9zM365.3 296.6c-.4.3-.1 2.1.6 4.1l1.3 3.6 9.9.3 9.9.3-1.8-4.2-1.8-4.2-8.7-.3c-4.9-.1-9.1 0-9.4.4zM416.3 297c0 .5.8 2.4 1.7 4.4l1.7 3.4h8.1c4.5 0 8.1-.2 8.1-.5s-.9-2.3-2-4.4l-2-3.9h-7.8c-4.4 0-7.8.4-7.8 1zM59.9 312.6l-2.4 4.9h28.2l1.6-3.9c.9-2.1 1.6-4.4 1.6-4.9 0-.6-5.2-1-13.2-1H62.3l-2.4 4.9zM93.3 308.9c-.3.7-1.2 2.9-2.1 4.9l-1.6 3.7H110l1.6-4.6c.9-2.5 1.6-4.7 1.6-4.9 0-.2-4.4-.3-9.7-.3-6.8 0-9.8.4-10.2 1.2zM117.6 308.6c-.3.6-1.2 2.7-2 4.9l-1.4 4h20.4l1-3.7c1.8-6.2 2-6.1-8.1-6.1-5.1 0-9.5.4-9.9.9zM140.5 311.8c-.6 2.3-1.3 4.5-1.6 4.9-.2.5 4.2.8 9.8.8H159l1.1-4.3c.6-2.4 1.1-4.6 1.1-4.9 0-.3-4.4-.6-9.8-.6h-9.7l-1.2 4.1zM165.6 308.5c-.3.5-.8 2.7-1.2 4.9l-.7 4.1h9.9c10.8 0 11-.1 11-7.1v-2.6h-9.2c-5.1-.1-9.5.3-9.8.7zM189.1 310.8c-1.4 6.9-1.6 6.7 9.1 6.7h9.7l.6-3c1.4-6.9 1.6-6.7-9.1-6.7h-9.6l-.7 3zM213.6 308.4c-.4.3-.7 2.5-.7 4.9v4.2H232.2l.6-4.1c.3-2.3.3-4.5.1-4.9-.6-1-18.4-1.1-19.3-.1zM237.4 312.6v4.9H257v-9.8h-19.6v4.9zM261.8 312.6v4.9H281.5l-.3-4.7-.3-4.6-9.5-.3-9.6-.3v5zM285.3 309.6c0 1 .3 3.2.6 4.9l.7 3H305.9v-2.7c0-6.9-.3-7-10.9-7-8.8-.1-9.7.1-9.7 1.8zM309.7 310.4c0 7 .2 7.1 11 7.1h9.9l-.7-4.1c-.4-2.1-.9-4.4-1.2-4.9-.3-.4-4.7-.8-9.8-.8h-9.2v2.7zM333.2 308.3c0 .3.5 2.4 1.1 4.9l1.1 4.3h9.7c10.8 0 10.9-.1 8.6-6.7l-1.1-3h-9.7c-5.3-.1-9.7.2-9.7.5zM357.7 308.9c0 .7.5 2.9 1.1 4.9l1 3.7H390c20.3 0 30.3-.3 30.3-1 0-.6-.9-2.8-2-4.9l-2-3.9H387c-22.8 0-29.3.3-29.3 1.2zM421.2 308.1c0 .2.9 2.3 2 4.9l2.1 4.5h17.5l-2.4-4.9-2.4-4.9h-8.3c-4.8 0-8.5.2-8.5.4zM55.7 321.6c-1.5 2-4.1 7.4-4.1 8.6 0 .7 3.3 1 10 .8l10.1-.3 2.1-4.4c1.2-2.4 2.1-4.7 2.1-5.2.1-1.2-19.1-.7-20.2.5zM79 324.6c-3 6.7-3.1 6.7 7.8 6.7h9.9l1.9-4.2c3-6.5 3.1-6.5-7.8-6.5h-9.9l-1.9 4zM104 324.4c-2.7 6.8-2.7 6.8 8.2 6.8 10.8 0 10.6.1 12.5-7.1l1-3.6h-20.2l-1.5 3.9zM129.3 323.6c-2.9 7.2-3 7.1 8.1 7.4 11.1.3 10.7.6 12.4-7.4l.7-3.1h-19.9l-1.3 3.1zM154.7 321.6c-1.4 4.1-2.1 8.5-1.7 9 .3.3 32.4.6 71.3.6H295v-2.3c0-1.3-.3-3.7-.6-5.4l-.6-3h-69.4c-54.5 0-69.4.2-69.7 1.1zM299 323.6c0 7.6.1 7.6 11.4 7.6h10.2l-.7-4.7c-.3-2.5-.8-4.9-1.1-5.4-.2-.4-4.8-.7-10.2-.7H299v3.2zM323.8 324.1c1.4 7.5.7 7.1 11.9 7.1h10.4l-.7-3.2c-1.8-7.8-1.4-7.5-12.3-7.5h-9.9l.6 3.6zM347.9 320.7c0 .2.7 2.6 1.5 5.4l1.6 5.1h10.2c5.7 0 10.3-.1 10.3-.3 0-.2-.7-2.6-1.5-5.4l-1.6-5.1h-10.2c-5.7.1-10.3.1-10.3.3zM373.9 322.6c.3 1.3 1.2 3.7 2 5.4l1.3 3.2h9.8c10.9 0 10.9.1 8.3-6.6l-1.7-4.2h-10.2c-10.2.1-10.2.1-9.5 2.2zM398.7 320.6c0 .2.9 2.4 1.9 5.2l1.9 4.9 10.5.3c8.2.2 10.4 0 10-1-.3-.7-1.3-3.1-2.1-5.5l-1.7-4.1H409c-5.7.1-10.3.1-10.3.2zM424.2 321.1c0 .4 1 2.7 2.1 5.2l2.1 4.4 10.1.3c11.2.3 11.3.2 7.7-6.2l-2.3-3.9-10-.3c-5.3-.1-9.8.1-9.7.5zM176.4 107.7c-4.5-1.6-9.2-2.4-13.9-2.5 0 0-3.2-.1-3.5-.1 3.1-2.9 6.6-5.3 10.4-7.1l11.5 11.5c-.1 0-2.9-1.2-4.5-1.8zm3 36.3c-11.5 3.8-24.1 2.8-34.8-2.8-.4-12.9 3.3-23.9 11.1-32.8 1.9-.2 3.8-.3 5.7-.3 11.5 8.3 18.1 21.7 18 35.9zm-37.6-4.5c0 3.7.3 7.4 1 11.1L125 132.9c-2-2-2-5.2 0-7.2l33.9-33.9c1.2-1.2 3.1-1.2 4.3 0l4 4c-4.7 2.7-9 6-12.8 9.8 0 0-1.9 2.1-2.9 3.4-5 6.5-9.7 16.4-9.7 30.5zm12 22.2l-7.5-7.5c-.7-3.2-1.2-6.5-1.5-9.8 10.8 5.2 23.1 6.1 34.5 2.6 0 0 2.2-.8 2.9-1 .7-.3 1.9-.8 2.9-1.2l-17 17c-3.9 3.9-10.3 3.9-14.3-.1zm42.8-28.4c-4.1 4.1-9 7.4-14.3 9.6-.2-13.2-6-25.8-15.9-34.6 5.5.7 10.8 2.3 15.6 4.9 5.2 2.5 10.5 7.8 15.1 12.4 2 2 1.9 5.2 0 7.2-.2.2-.3.4-.5.5z"/><path class="st2" d="M220.7 114.3c0-6.1 5-11.1 11.1-11.1s11.1 5 11.1 11.1-5 11.1-11.1 11.1c-6.1.1-11-4.8-11.1-10.9v-.2zm16.8 0c.1-3.1-2.4-5.7-5.6-5.8-3.1-.1-5.7 2.4-5.8 5.6v.2c-.1 3.1 2.4 5.7 5.6 5.8 3.1.1 5.7-2.4 5.8-5.6v-.2zM273.4 111.9v12.9H268v-12.2c0-2.9-1.7-4.3-4.2-4.3-2.6 0-4.6 1.5-4.6 5.2v11.3h-5.4v-21h5.4v2.3c1.4-2 3.8-3.1 6.3-2.9 4.4 0 7.9 3.1 7.9 8.7zM274 114.3c0-6.1 5-11.1 11.1-11.1s11.1 5 11.1 11.1-5 11.1-11.1 11.1c-6.1.1-11-4.8-11.1-10.9v-.2zm16.8 0c.1-3.1-2.4-5.7-5.6-5.8-3.1-.1-5.7 2.4-5.8 5.6v.2c-.1 3.1 2.4 5.7 5.6 5.8 3.1.1 5.7-2.4 5.8-5.6v-.2zM316 103.8l-8 21h-6.2l-8-21h6l5.1 14.7 5.1-14.7h6zM313.8 114.3c0-6.1 5-11.1 11.1-11.1s11.1 5 11.1 11.1-5 11.1-11.1 11.1c-6.1.1-11-4.8-11.1-10.9v-.2zm16.8 0c.1-3.1-2.4-5.7-5.6-5.8-3.1-.1-5.7 2.4-5.8 5.6v.2c-.1 3.1 2.4 5.7 5.6 5.8 3.1.1 5.7-2.4 5.8-5.6v-.2zM251.9 138.9v12.9h-5.4v-12.6c0-2.5-1.3-4-3.5-4-2.4 0-3.9 1.6-3.9 4.8v11.8h-5.4v-12.6c0-2.5-1.3-4-3.5-4-2.3 0-3.9 1.6-3.9 4.8v11.8h-5.4v-21h5.4v2.2c1.3-1.9 3.5-3 5.8-2.8 2.3-.1 4.5 1 5.7 3 1.4-2 3.8-3.2 6.3-3 4.6 0 7.8 3.4 7.8 8.7zM264 147.5c1.8.1 3.5-.7 4.7-2.1l4.4 2.5c-2.1 3-5.5 4.7-9.2 4.5-7.1 0-11.5-4.8-11.5-11.1-.2-5.9 4.4-10.9 10.3-11.1h.8c6.2 0 10.6 4.9 10.6 11.1 0 .7-.1 1.5-.2 2.2h-15.8c.8 2.8 3.1 4 5.9 4zm4.7-8.2c-.4-2.5-2.7-4.3-5.2-4.2-2.6-.2-5 1.6-5.5 4.2h10.7zM286.8 130.4v6.1c-2.8-.3-6.4.9-6.4 5.3v10H275v-21h5.4v3.6c1.1-2.6 3.6-4.2 6.4-4zM286.8 141.3c-.1-6 4.6-11 10.6-11.1h.5c3.9-.1 7.5 2 9.4 5.4l-4.7 2.7a5.1 5.1 0 0 0-4.8-2.8c-3.2.1-5.7 2.7-5.6 5.8.1 3.1 2.5 5.6 5.6 5.6 2 .1 3.9-1 4.8-2.8l4.7 2.7c-3.1 5.3-9.9 7-15.1 3.9-3.3-1.8-5.4-5.5-5.4-9.4zM329.9 130.8v21h-5.4v-2.5c-1.7 2-4.2 3.2-6.9 3.1-5.6 0-10.2-4.8-10.2-11.1s4.6-11.1 10.2-11.1c2.6-.1 5.2 1 6.9 3.1v-2.5h5.4zm-5.5 10.5c.1-3.2-2.5-5.9-5.7-5.9-3.2-.1-5.9 2.5-5.9 5.7v.2c-.1 3.2 2.5 5.9 5.7 5.9 3.2.1 5.9-2.5 5.9-5.7v-.2zM353.2 122.4v29.4h-5.4v-2.5c-1.6 2.1-4.2 3.2-6.8 3.1-5.6 0-10.3-4.8-10.3-11.1s4.6-11.1 10.3-11.1c2.6-.1 5.2 1 6.8 3.1v-10.9h5.4zm-5.5 18.9c.1-3.2-2.5-5.9-5.7-5.9-3.2-.1-5.9 2.5-5.9 5.7v.2c-.1 3.2 2.5 5.9 5.7 5.9 3.2.1 5.9-2.5 5.9-5.7v-.2zM354.1 141.3c0-6.1 5-11.1 11.1-11.1s11.1 5 11.1 11.1-5 11.1-11.1 11.1c-6.1.1-11-4.8-11.1-10.8v-.3zm16.8 0c-.1-3.1-2.7-5.6-5.8-5.6-3.1.1-5.6 2.7-5.6 5.8.1 3.1 2.6 5.6 5.7 5.6 3.1.1 5.6-2.4 5.7-5.5v-.3z"/></svg>