<svg version="1.1" id="Camada_1" xmlns="http://www.w3.org/2000/svg" x="0" y="0" viewBox="0 0 300 300" xml:space="preserve"><style>.st0{fill:#fff}</style><path class="st0" d="M214.5 295.8h-129c-44.9 0-81.3-36.5-81.3-81.3v-129c0-44.9 36.5-81.3 81.3-81.3h129c44.9 0 81.3 36.5 81.3 81.3v129c0 44.8-36.5 81.3-81.3 81.3zM85.5 28.2c-31.6 0-57.3 25.7-57.3 57.3v129c0 31.6 25.7 57.3 57.3 57.3h129c31.6 0 57.3-25.7 57.3-57.3v-129c0-31.6-25.7-57.3-57.3-57.3h-129z"/><path class="st0" d="M150 223.9c-40.8 0-73.9-33.2-73.9-73.9 0-40.8 33.2-73.9 73.9-73.9s73.9 33.2 73.9 73.9c0 40.8-33.2 73.9-73.9 73.9zm0-123.7c-27.5 0-49.8 22.4-49.8 49.8s22.4 49.8 49.8 49.8 49.8-22.4 49.8-49.8-22.3-49.8-49.8-49.8z"/><circle class="st0" cx="226.6" cy="72.3" r="14.7"/></svg>