<svg xmlns="http://www.w3.org/2000/svg" width="252.795" height="73.773"><defs><style>.b{fill:#fff}</style></defs><path d="M52.845 16.762a45.065 45.065 0 0 0-13.95-2.52s-3.23-.07-3.46-.07a43.824 43.824 0 0 1 10.38-7.13l11.52 11.52c-.05-.02-2.85-1.21-4.49-1.8zm3.08 36.27a44.605 44.605 0 0 1-34.81-2.83c-.41-12.88 3.27-23.92 11.14-32.79a43.028 43.028 0 0 1 5.68-.31 44.185 44.185 0 0 1 17.99 35.93zm-37.67-4.48a68.272 68.272 0 0 0 .95 11.12l-17.72-17.72a5.082 5.082 0 0 1 0-7.18L35.355.892a3.048 3.048 0 0 1 4.31 0l4 4a59.5 59.5 0 0 0-12.82 9.79s-1.85 2.06-2.9 3.44c-4.95 6.5-9.7 16.39-9.69 30.43zm12.08 22.25l-7.52-7.52a75.316 75.316 0 0 1-1.5-9.77 47.518 47.518 0 0 0 34.54 2.57s2.18-.75 2.9-1.01 1.89-.76 2.91-1.23l-16.97 16.96a10.164 10.164 0 0 1-14.36 0zm42.79-28.43a43.891 43.891 0 0 1-14.34 9.6 46.969 46.969 0 0 0-15.91-34.56 43.962 43.962 0 0 1 15.62 4.95c5.17 2.51 10.51 7.79 15.08 12.43a5.085 5.085 0 0 1-.03 7.16c-.16.15-.3.3-.42.42z" fill="#e7004c"/><path class="b" d="M97.175 23.392a11.11 11.11 0 1 1 11.09 11.09 10.977 10.977 0 0 1-11.09-11.09zm16.81 0a5.691 5.691 0 1 0-11.38 0 5.691 5.691 0 1 0 11.38 0zM149.895 21.002v12.9h-5.42v-12.23c0-2.86-1.72-4.33-4.16-4.33-2.65 0-4.62 1.55-4.62 5.21v11.34h-5.42v-21h5.42v2.35a7.136 7.136 0 0 1 6.26-2.94c4.46 0 7.94 3.11 7.94 8.7zM150.485 23.392a11.11 11.11 0 1 1 11.09 11.09 10.977 10.977 0 0 1-11.09-11.09zm16.8 0a5.691 5.691 0 1 0-11.38 0 5.691 5.691 0 1 0 11.38 0z"/><path class="b" d="M192.525 12.892l-7.98 21h-6.17l-7.98-21h5.96l5.08 14.7 5.12-14.7zM190.265 23.392a11.11 11.11 0 1 1 11.09 11.09 10.977 10.977 0 0 1-11.09-11.09zm16.8 0a5.691 5.691 0 1 0-11.38 0 5.691 5.691 0 1 0 11.38 0zM128.345 47.952v12.94h-5.42v-12.56c0-2.48-1.26-3.99-3.53-3.99-2.39 0-3.91 1.6-3.91 4.75v11.8h-5.42v-12.56c0-2.48-1.26-3.99-3.53-3.99-2.31 0-3.95 1.6-3.95 4.75v11.8h-5.42v-21h5.42v2.23a6.642 6.642 0 0 1 5.84-2.81 6.293 6.293 0 0 1 5.71 3.02 7.188 7.188 0 0 1 6.26-3.02c4.8-.02 7.95 3.39 7.95 8.64zM140.525 56.562a5.8 5.8 0 0 0 4.7-2.1l4.37 2.52a10.606 10.606 0 0 1-9.16 4.49c-7.06 0-11.51-4.83-11.51-11.09a10.721 10.721 0 0 1 11.09-11.09c6.22 0 10.63 4.91 10.63 11.09a12.232 12.232 0 0 1-.21 2.23h-15.84c.76 2.77 3.08 3.95 5.93 3.95zm4.71-8.15a5.1 5.1 0 0 0-5.21-4.24 5.23 5.23 0 0 0-5.5 4.24h10.71zM163.295 39.462v6.05c-2.81-.34-6.38.92-6.38 5.33v10.04h-5.42v-21h5.42v3.61a6.451 6.451 0 0 1 6.38-4.03zM163.295 50.382a10.843 10.843 0 0 1 11.09-11.09 10.556 10.556 0 0 1 9.41 5.42l-4.66 2.73a5.2 5.2 0 0 0-4.79-2.81 5.731 5.731 0 0 0 0 11.46 5.185 5.185 0 0 0 4.83-2.77l4.7 2.69a11.049 11.049 0 0 1-20.58-5.63zM206.345 39.882v21h-5.42v-2.48a8.363 8.363 0 0 1-6.85 3.07c-5.59 0-10.21-4.83-10.21-11.09s4.62-11.09 10.21-11.09a8.376 8.376 0 0 1 6.85 3.07v-2.48zm-5.42 10.5a5.821 5.821 0 1 0-11.64 0 5.821 5.821 0 1 0 11.64 0zM229.655 31.482v29.4h-5.42v-2.48a8.164 8.164 0 0 1-6.8 3.07c-5.63 0-10.25-4.83-10.25-11.09s4.62-11.09 10.25-11.09a8.124 8.124 0 0 1 6.8 3.07v-10.88zm-5.42 18.9a5.821 5.821 0 1 0-11.64 0 5.821 5.821 0 1 0 11.64 0zM230.575 50.382a11.11 11.11 0 1 1 11.09 11.09 10.97 10.97 0 0 1-11.09-11.09zm16.81 0a5.691 5.691 0 1 0-5.71 5.8 5.589 5.589 0 0 0 5.71-5.8z"/></svg>