<svg xmlns="http://www.w3.org/2000/svg" width="252.795" height="73.773" viewBox="0 0 252.795 73.773"><defs><style>.a{fill:#e7004c;}.b{fill:#fff;}</style></defs><g transform="translate(-0.005 0.002)"><path class="a" d="M52.85,16.76h0A45.065,45.065,0,0,0,38.9,14.24s-3.23-.07-3.46-.07A43.824,43.824,0,0,1,45.82,7.04L57.34,18.56C57.29,18.54,54.49,17.35,52.85,16.76Zm3.08,36.27A44.605,44.605,0,0,1,21.12,50.2c-.41-12.88,3.27-23.92,11.14-32.79a43.028,43.028,0,0,1,5.68-.31A44.185,44.185,0,0,1,55.93,53.03ZM18.26,48.55a68.272,68.272,0,0,0,.95,11.12L1.49,41.95a5.082,5.082,0,0,1,0-7.18L35.36.89a3.048,3.048,0,0,1,4.31,0l4,4a59.5,59.5,0,0,0-12.82,9.79s-1.85,2.06-2.9,3.44h0c-4.95,6.5-9.7,16.39-9.69,30.43ZM30.34,70.8l-7.52-7.52a75.316,75.316,0,0,1-1.5-9.77,47.518,47.518,0,0,0,34.54,2.57s2.18-.75,2.9-1.01,1.89-.76,2.91-1.23L44.7,70.8A10.164,10.164,0,0,1,30.34,70.8ZM73.13,42.37a43.891,43.891,0,0,1-14.34,9.6A46.969,46.969,0,0,0,42.88,17.41,43.962,43.962,0,0,1,58.5,22.36c5.17,2.51,10.51,7.79,15.08,12.43a5.085,5.085,0,0,1-.03,7.16C73.39,42.1,73.25,42.25,73.13,42.37Z"/><path class="b" d="M97.18,23.39a11.11,11.11,0,1,1,11.09,11.09A10.977,10.977,0,0,1,97.18,23.39Zm16.81,0a5.691,5.691,0,1,0-11.38,0,5.691,5.691,0,1,0,11.38,0Z"/><path class="b" d="M149.9,21V33.9h-5.42V21.67c0-2.86-1.72-4.33-4.16-4.33-2.65,0-4.62,1.55-4.62,5.21V33.89h-5.42v-21h5.42v2.35a7.136,7.136,0,0,1,6.26-2.94C146.42,12.3,149.9,15.41,149.9,21Z"/><path class="b" d="M150.49,23.39a11.11,11.11,0,1,1,11.09,11.09A10.977,10.977,0,0,1,150.49,23.39Zm16.8,0a5.691,5.691,0,1,0-11.38,0,5.691,5.691,0,1,0,11.38,0Z"/><path class="b" d="M192.53,12.89l-7.98,21h-6.17l-7.98-21h5.96l5.08,14.7,5.12-14.7Z"/><path class="b" d="M190.27,23.39a11.11,11.11,0,1,1,11.09,11.09A10.977,10.977,0,0,1,190.27,23.39Zm16.8,0a5.691,5.691,0,1,0-11.38,0,5.691,5.691,0,1,0,11.38,0Z"/><path class="b" d="M128.35,47.95V60.89h-5.42V48.33c0-2.48-1.26-3.99-3.53-3.99-2.39,0-3.91,1.6-3.91,4.75v11.8h-5.42V48.33c0-2.48-1.26-3.99-3.53-3.99-2.31,0-3.95,1.6-3.95,4.75v11.8H97.17v-21h5.42v2.23a6.642,6.642,0,0,1,5.84-2.81,6.293,6.293,0,0,1,5.71,3.02,7.188,7.188,0,0,1,6.26-3.02C125.2,39.29,128.35,42.7,128.35,47.95Z"/><path class="b" d="M140.53,56.56a5.8,5.8,0,0,0,4.7-2.1l4.37,2.52a10.606,10.606,0,0,1-9.16,4.49c-7.06,0-11.51-4.83-11.51-11.09a10.721,10.721,0,0,1,11.09-11.09c6.22,0,10.63,4.91,10.63,11.09a12.232,12.232,0,0,1-.21,2.23H134.6C135.36,55.38,137.68,56.56,140.53,56.56Zm4.71-8.15a5.1,5.1,0,0,0-5.21-4.24,5.23,5.23,0,0,0-5.5,4.24h10.71Z"/><path class="b" d="M163.3,39.46v6.05c-2.81-.34-6.38.92-6.38,5.33V60.88H151.5v-21h5.42v3.61A6.451,6.451,0,0,1,163.3,39.46Z"/><path class="b" d="M163.3,50.38a10.843,10.843,0,0,1,11.09-11.09,10.556,10.556,0,0,1,9.41,5.42l-4.66,2.73a5.2,5.2,0,0,0-4.79-2.81,5.731,5.731,0,0,0,0,11.46,5.185,5.185,0,0,0,4.83-2.77l4.7,2.69a11.049,11.049,0,0,1-20.58-5.63Z"/><path class="b" d="M206.35,39.88v21h-5.42V58.4a8.363,8.363,0,0,1-6.85,3.07c-5.59,0-10.21-4.83-10.21-11.09s4.62-11.09,10.21-11.09a8.376,8.376,0,0,1,6.85,3.07V39.88Zm-5.42,10.5a5.821,5.821,0,1,0-11.64,0,5.821,5.821,0,1,0,11.64,0Z"/><path class="b" d="M229.66,31.48v29.4h-5.42V58.4a8.164,8.164,0,0,1-6.8,3.07c-5.63,0-10.25-4.83-10.25-11.09s4.62-11.09,10.25-11.09a8.124,8.124,0,0,1,6.8,3.07V31.48Zm-5.42,18.9a5.821,5.821,0,1,0-11.64,0,5.821,5.821,0,1,0,11.64,0Z"/><path class="b" d="M230.58,50.38a11.11,11.11,0,1,1,11.09,11.09A10.97,10.97,0,0,1,230.58,50.38Zm16.81,0a5.691,5.691,0,1,0-5.71,5.8A5.589,5.589,0,0,0,247.39,50.38Z"/></g></svg>