<?xml version="1.0" encoding="utf-8"?>
<!-- Generator: Adobe Illustrator 25.0.0, SVG Export Plug-In . SVG Version: 6.00 Build 0)  -->
<svg version="1.1" id="Camada_1" xmlns="http://www.w3.org/2000/svg" xmlns:xlink="http://www.w3.org/1999/xlink" x="0px" y="0px"
	 viewBox="0 0 300 300" style="enable-background:new 0 0 300 300;" xml:space="preserve">
<style type="text/css">
	.st0{fill:#D3094C;}
	.st1{fill:#BF0E49;}
</style>
<path class="st0" d="M204,49.7c-41.6,0-75.3,33.7-75.3,75.3s33.7,75.3,75.3,75.3s75.3-33.7,75.3-75.3S245.5,49.7,204,49.7z
	 M204,158.9c-18.7,0-33.9-15.2-33.9-33.9s15.2-33.9,33.9-33.9s33.9,15.2,33.9,33.9S222.7,158.9,204,158.9z"/>
<g>
	<path class="st1" d="M23.1,230.5l78.5-81.5c13.7-14,23.7-27.7,23.7-41.4c0-14.7-9.4-24.7-25.1-24.7c-16.4,0-28.1,10.7-34.4,25.4
		L20.8,81.8c15-34.8,46.4-51.1,78.9-51.1c41.8,0,79.2,27.4,79.2,74.5c0,28.1-15,52.1-36.4,73.5l-38.8,39.1h78.5v51.5h-159V230.5z"/>
</g>
</svg>
