<svg xmlns="http://www.w3.org/2000/svg" viewBox="0 0 300 300"><path d="M204 49.7c-41.6 0-75.3 33.7-75.3 75.3s33.7 75.3 75.3 75.3 75.3-33.7 75.3-75.3-33.8-75.3-75.3-75.3zm0 109.2c-18.7 0-33.9-15.2-33.9-33.9s15.2-33.9 33.9-33.9 33.9 15.2 33.9 33.9-15.2 33.9-33.9 33.9z" fill="#d3094c"/><path d="M23.1 230.5l78.5-81.5c13.7-14 23.7-27.7 23.7-41.4 0-14.7-9.4-24.7-25.1-24.7-16.4 0-28.1 10.7-34.4 25.4l-45-26.5c15-34.8 46.4-51.1 78.9-51.1 41.8 0 79.2 27.4 79.2 74.5 0 28.1-15 52.1-36.4 73.5l-38.8 39.1h78.5v51.5h-159v-38.8z" fill="#bf0e49"/></svg>