<?xml version="1.0" encoding="utf-8"?>
<!-- Generator: Adobe Illustrator 25.0.0, SVG Export Plug-In . SVG Version: 6.00 Build 0)  -->
<svg version="1.1" id="Camada_1" xmlns="http://www.w3.org/2000/svg" xmlns:xlink="http://www.w3.org/1999/xlink" x="0px" y="0px"
	 viewBox="0 0 300 300" style="enable-background:new 0 0 300 300;" xml:space="preserve">
<style type="text/css">
	.st0{fill:#D3094C;}
	.st1{fill:#BF0E49;}
</style>
<path class="st0" d="M208.1,46.1c-41.6,0-75.3,33.7-75.3,75.3s33.7,75.3,75.3,75.3s75.3-33.7,75.3-75.3S249.6,46.1,208.1,46.1z
	 M208.1,155.2c-18.7,0-33.9-15.2-33.9-33.9s15.2-33.9,33.9-33.9s33.9,15.2,33.9,33.9S226.8,155.2,208.1,155.2z"/>
<g>
	<path class="st1" d="M183.7,192.1c0,51.5-40.1,78.2-85.2,78.2c-35.4,0-67.5-15.7-81.9-50.1l46.1-26.7c5.3,15.4,15.4,24.7,35.8,24.7
		c22.1,0,31.7-11.7,31.7-26.1c0-14.4-9.7-26.1-31.7-26.1h-11l-20.4-30.4l42.4-53.8H24V31.7h150.4v43.4l-40.4,51.5
		C162.7,136.6,183.7,159.7,183.7,192.1z"/>
</g>
</svg>
